<svg width="52" height="46" viewBox="0 0 52 46" fill="none" xmlns="http://www.w3.org/2000/svg">
<rect width="52" height="46" fill="#F8F9FA"/>
<g clip-path="url(#clip0_215_218)">
<path fill-rule="evenodd" clip-rule="evenodd" d="M8.97269 4.02347H10.7103L10.5353 10.4954C17.7282 10.9216 20.0741 12.0078 25.8435 16.0811C30.4797 12.8376 35.3942 10.5332 41.3107 10.4992L41.3027 3.99707L43.0721 4.0197L42.9568 10.0843C42.921 11.9022 42.6984 11.7853 40.8256 12.0229C34.1019 12.8791 31.5174 13.6937 25.9469 18.1819C20.4439 14.2557 17.4538 12.4642 10.9965 12.0531C8.94485 11.9211 8.71026 11.823 8.8534 10.2201L8.96871 4.0197L8.97269 4.02347Z" fill="#151A3A"/>
<path fill-rule="evenodd" clip-rule="evenodd" d="M5.04028 7.65576H6.77786L6.84148 11.0728C7.0204 14.437 10.0462 13.7808 12.3007 14.1051C18.9965 15.0706 21.3584 17.0394 26.1417 21.2673C30.7182 15.7533 36.2292 14.2748 43.2868 13.8185C44.2888 13.7544 45.1079 12.4305 45.1238 11.5518L45.2033 7.70102L46.9727 7.72365L46.7898 11.4839C46.6904 13.4903 45.1715 15.4214 42.9608 15.5458C34.7779 16.0173 30.8176 18.2048 26.09 23.8546C21.4856 18.8459 18.1934 16.1606 10.8574 15.6288C7.89913 15.625 5.27885 14.7727 5.1715 11.5518L5.04028 7.65576V7.65576Z" fill="#151A3A"/>
<path fill-rule="evenodd" clip-rule="evenodd" d="M1 11.2493L3.03181 11.2267C3.27435 14.2666 5.18688 17.2951 9.0159 17.5139C16.1531 17.9212 22.2604 20.3878 25.3101 26.9503L25.9066 28.2288H26.2644C26.5427 27.3463 26.7575 26.9201 27.2028 26.1017C30.8688 20.4745 35.4493 17.8231 42.499 17.6346C46.4751 17.2046 48.5865 15.1755 49.004 11.1777L51 11.1626C50.5348 15.1906 47.7396 19.1055 43.2107 19.5166C41.3459 19.6825 39.9662 19.641 38.0577 20.1087C33.831 21.1497 30.4632 23.6577 28.3479 27.7951C27.338 29.9411 26.9324 31.4309 26.9006 33.7843L25.1074 33.7579C24.9324 31.3102 24.6342 28.9756 23.1511 26.8749C18.8728 20.8215 16.0139 20.0295 8.81312 19.328C3.67197 18.8264 1.68787 15.4433 1.00795 11.2456L1 11.2493Z" fill="#EA3429"/>
<path fill-rule="evenodd" clip-rule="evenodd" d="M26.0302 9.21729C28.2528 9.21729 30.3801 9.61707 32.3284 10.345L29.4934 11.5406L29.4815 11.582C28.3721 11.3369 27.2151 11.2049 26.0262 11.2049C24.9049 11.2049 23.8115 11.3218 22.7618 11.5406L19.8353 10.3035C21.7558 9.60198 23.8433 9.21729 26.0262 9.21729H26.0302ZM42.6942 21.3541C43.0719 22.7006 43.2747 24.1149 43.2747 25.5783C43.2747 34.6111 35.553 41.9355 26.0302 41.9355C16.5073 41.9355 8.78564 34.6111 8.78564 25.5783C8.78564 24.1149 8.98843 22.6968 9.37014 21.3466L11.5252 21.4296C11.1077 22.742 10.885 24.1338 10.885 25.5745C10.885 33.5098 17.6683 39.9441 26.0341 39.9441C34.4 39.9441 41.1832 33.5098 41.1832 25.5745C41.1832 24.1338 40.9606 22.7458 40.5431 21.4371L42.6982 21.3541H42.6942Z" fill="#151A3A"/>
<path fill-rule="evenodd" clip-rule="evenodd" d="M35.7635 22.9233C36.5587 23.5645 37.0637 24.5225 37.0637 25.5898C37.0637 27.5209 35.4136 29.0898 33.3738 29.0898C32.2525 29.0898 31.2466 28.6146 30.5667 27.8603L31.7476 26.412C32.0577 26.9589 32.67 27.3323 33.3698 27.3323C34.3877 27.3323 35.2108 26.5516 35.2108 25.5861C35.2108 24.9185 34.8171 24.3414 34.2366 24.0473L35.7595 22.9233H35.7635Z" fill="#151A3A"/>
<path fill-rule="evenodd" clip-rule="evenodd" d="M16.3083 22.9233C15.513 23.5645 15.0081 24.5225 15.0081 25.5898C15.0081 27.5209 16.6582 29.0898 18.6979 29.0898C19.8232 29.0898 20.8252 28.6146 21.5051 27.8603L20.3242 26.412C20.014 26.9589 19.4017 27.3323 18.7019 27.3323C17.684 27.3323 16.8609 26.5516 16.8609 25.5861C16.8609 24.9185 17.2546 24.3414 17.8351 24.0473L16.3122 22.9233H16.3083Z" fill="#151A3A"/>
</g>
<defs>
<clipPath id="clip0_215_218">
<rect width="50" height="37.931" fill="white" transform="translate(1 4)"/>
</clipPath>
</defs>
</svg>
