<?xml version="1.0" encoding="utf-8"?>
<!-- Generator: Adobe Illustrator 18.1.1, SVG Export Plug-In . SVG Version: 6.00 Build 0)  -->
<svg version="1.1" id="Layer_1" xmlns="http://www.w3.org/2000/svg" xmlns:xlink="http://www.w3.org/1999/xlink" x="0px" y="0px"
	 viewBox="0 0 596.8 836.4" enable-background="new 0 0 596.8 836.4" xml:space="preserve">
<defs>
	<filter id="Adobe_OpacityMaskFilter" filterUnits="userSpaceOnUse" x="57.2" y="407" width="530.6" height="429.4">
		<feFlood  style="flood-color:white;flood-opacity:1" result="back"/>
		<feBlend  in="SourceGraphic" in2="back" mode="normal"/>
	</filter>
</defs>
<mask maskUnits="userSpaceOnUse" x="57.2" y="407" width="530.6" height="429.4" id="SVGID_1_">
	<g filter="url(#Adobe_OpacityMaskFilter)">
		<defs>
			<filter id="Adobe_OpacityMaskFilter_1_" filterUnits="userSpaceOnUse" x="57.2" y="407" width="530.6" height="429.4">
				<feFlood  style="flood-color:white;flood-opacity:1" result="back"/>
				<feBlend  in="SourceGraphic" in2="back" mode="normal"/>
			</filter>
		</defs>
		<mask maskUnits="userSpaceOnUse" x="57.2" y="407" width="530.6" height="429.4" id="SVGID_1_">
			<g filter="url(#Adobe_OpacityMaskFilter_1_)">
			</g>
		</mask>
		<linearGradient id="SVGID_2_" gradientUnits="userSpaceOnUse" x1="473.832" y1="746.3445" x2="136.3584" y2="468.4247">
			<stop  offset="6.157600e-04" style="stop-color:#000000"/>
			<stop  offset="1" style="stop-color:#FFFFFF"/>
		</linearGradient>
		<polygon mask="url(#SVGID_1_)" fill="url(#SVGID_2_)" points="587.8,665.5 376.4,836.4 57.2,577.9 268.5,407 		"/>
	</g>
</mask>
<linearGradient id="SVGID_3_" gradientUnits="userSpaceOnUse" x1="473.832" y1="746.3445" x2="136.3584" y2="468.4247">
	<stop  offset="6.157600e-04" style="stop-color:#FFFFFF"/>
	<stop  offset="1" style="stop-color:#BED3E7"/>
</linearGradient>
<polygon fill="url(#SVGID_3_)" points="587.8,665.5 376.4,836.4 57.2,577.9 268.5,407 "/>
<g>
	<path fill="#FFFFFF" d="M-1.3,131v393.6c0,4.4,2.2,8.5,6,10.9l194.1,156.6c4.9,4,11.9,4,16.8,0l194.1-156.6c3.7-2.4,6-6.5,6-10.9
		V131L206.5,264.7L-1.3,131z"/>
	<g>
		<g>
			<path fill="#FFFFFF" d="M206.5,264.7l-8.6-5.6v432.1l1,0.8c4.9,4,11.9,4,16.8,0l194.1-156.6c3.7-2.4,6-6.5,6-10.9V131
				L206.5,264.7z"/>
		</g>
		<path fill="#FEFEFF" d="M198,259.2v432.1c0,0,1,0.8,1,0.8c2.2,1.8,4.8,2.7,7.5,2.9c3.2,0.2,6.6-0.8,9.3-3l194-156.6
			c3.7-2.4,6-6.5,6-10.9V131L206.6,264.6L198,259.2z"/>
		<path fill="#FDFEFF" d="M198.1,259.3v432.1c0,0,1,0.8,1,0.8c2.2,1.7,4.8,2.7,7.5,2.8c3.2,0.2,6.6-0.9,9.2-3.1l193.9-156.5
			c3.7-2.4,6-6.5,6-10.9V131l-209,133.5L198.1,259.3z"/>
		<path fill="#FCFDFE" d="M198.3,259.4v432.1c0,0,1,0.8,1,0.8c2.2,1.7,4.8,2.6,7.4,2.7c3.1,0.2,6.6-1,9.2-3.1l193.8-156.4
			c3.7-2.4,6-6.5,6-10.9V131L206.9,264.4L198.3,259.4z"/>
		<path fill="#FBFCFE" d="M198.4,259.4v432c0,0,1,0.8,1,0.8c2.2,1.7,4.8,2.5,7.4,2.6c3.1,0.2,6.6-1.1,9.1-3.2l193.7-156.3
			c3.7-2.4,6-6.5,6-10.9V131L207,264.3L198.4,259.4z"/>
		<path fill="#FAFCFE" d="M198.6,259.5v432c0,0,1,0.8,1,0.8c2.2,1.6,4.8,2.5,7.4,2.5c3,0.2,6.6-1.2,9.1-3.2l193.6-156.2
			c3.7-2.4,6-6.5,6-10.9V131L207.1,264.2L198.6,259.5z"/>
		<path fill="#F9FBFE" d="M198.7,259.6v432c0,0,1,0.8,1,0.8c2.2,1.6,4.8,2.4,7.4,2.4c2.9,0.2,6.6-1.2,9.1-3.2l193.5-156.1
			c3.7-2.4,6-6.5,6-10.9V131L207.3,264.1L198.7,259.6z"/>
		<path fill="#F8FBFD" d="M198.9,259.7v432c0,0,1,0.7,1,0.7c2.2,1.6,4.8,2.3,7.4,2.3c2.9,0.2,6.6-1.3,9-3.3l193.4-156
			c3.7-2.4,6-6.5,6-10.9V131L207.4,264L198.9,259.7z"/>
		<path fill="#F8FAFD" d="M199.1,259.8v432c0.1,0,1,0.7,1,0.7c2.2,1.5,4.8,2.3,7.4,2.2c2.8,0.2,6.6-1.4,9-3.3l193.2-155.9
			c3.7-2.4,6-6.5,6-10.9V131L207.6,264L199.1,259.8z"/>
		<path fill="#F7FAFD" d="M199.2,259.9v431.9c0.1,0,1,0.7,1,0.7c2.2,1.5,4.8,2.2,7.4,2.1c2.8,0.2,6.6-1.5,8.9-3.4l193.1-155.8
			c3.7-2.4,6-6.5,6-10.9V131l-208,132.9L199.2,259.9z"/>
		<path fill="#F6F9FD" d="M199.4,259.9v431.9c0.1,0,1,0.7,1.1,0.7c2.2,1.5,4.8,2.1,7.4,2c2.7,0.2,6.7-1.6,8.9-3.4l193-155.7
			c3.7-2.4,6-6.5,6-10.9V131L207.8,263.8L199.4,259.9z"/>
		<path fill="#F6F9FD" d="M199.5,260v431.9c0.1,0,1,0.7,1.1,0.7c2.2,1.4,4.8,2.1,7.4,1.9c2.7,0.2,6.7-1.6,8.9-3.4l192.9-155.6
			c3.7-2.4,6-6.5,6-10.9V131L208,263.7L199.5,260z"/>
		<path fill="#F5F8FD" d="M199.7,260.1V692c0.1,0,1,0.7,1.1,0.7c2.3,1.4,4.8,2,7.4,1.8c2.6,0.2,6.7-1.7,8.8-3.5l192.8-155.6
			c3.7-2.4,6-6.5,6-10.9V131L208.1,263.6L199.7,260.1z"/>
		<path fill="#F4F8FC" d="M199.8,260.2V692c0.1,0,1,0.7,1.1,0.6c2.3,1.4,4.9,1.9,7.4,1.7c2.6,0.2,6.7-1.8,8.8-3.5l192.7-155.5
			c3.7-2.4,6-6.5,6-10.9V131L208.2,263.5L199.8,260.2z"/>
		<path fill="#F4F7FC" d="M200,260.3v431.8c0.1,0,1,0.6,1.1,0.6c2.3,1.3,4.9,1.9,7.4,1.6c2.5,0.2,6.7-1.9,8.7-3.6l192.6-155.4
			c3.7-2.4,6-6.5,6-10.9V131L208.4,263.4L200,260.3z"/>
		<path fill="#F3F7FC" d="M200.1,260.4v431.8c0.1,0,1,0.6,1.1,0.6c2.3,1.3,4.9,1.8,7.4,1.5c2.5,0.2,6.7-1.9,8.7-3.6l192.4-155.3
			c3.7-2.4,6-6.5,6-10.9V131L208.5,263.3L200.1,260.4z"/>
		<path fill="#F2F6FC" d="M200.3,260.4v431.8c0.1,0,1,0.6,1.1,0.6c2.3,1.3,4.9,1.7,7.4,1.4c2.4,0.2,6.7-2,8.7-3.7l192.3-155.2
			c3.7-2.4,6-6.5,6-10.9V131l-207,132.3L200.3,260.4z"/>
		<path fill="#F2F6FC" d="M200.4,260.5v431.8c0.1,0,1,0.6,1.1,0.6c2.3,1.2,4.9,1.7,7.4,1.3c2.4,0.2,6.7-2.1,8.6-3.7l192.2-155.1
			c3.7-2.4,6-6.5,6-10.9V131L208.8,263.2L200.4,260.5z"/>
		<path fill="#F1F6FC" d="M200.6,260.6v431.8c0.1,0,1,0.6,1.1,0.6c2.3,1.2,4.9,1.6,7.4,1.2c2.3,0.2,6.7-2.2,8.6-3.7l192.1-155
			c3.7-2.4,6-6.5,6-10.9V131L208.9,263.1L200.6,260.6z"/>
		<path fill="#F1F5FB" d="M200.7,260.7v431.7c0.1,0,1,0.6,1.1,0.6c2.3,1.2,4.9,1.5,7.4,1.1c2.3,0.2,6.7-2.3,8.5-3.8l192-154.9
			c3.7-2.4,6-6.5,6-10.9V131L209.1,263L200.7,260.7z"/>
		<path fill="#F0F5FB" d="M200.9,260.8v431.7c0.1,0,1,0.6,1.1,0.5c2.3,1.1,4.9,1.5,7.4,1c2.2,0.2,6.7-2.3,8.5-3.8l191.9-154.8
			c3.7-2.4,6-6.5,6-10.9V131L209.2,262.9L200.9,260.8z"/>
		<path fill="#EFF4FB" d="M201.1,260.9v431.7c0.1,0,1,0.5,1.1,0.5c2.3,1.1,4.9,1.4,7.4,0.9c2.1,0.1,6.7-2.4,8.5-3.9l191.8-154.7
			c3.7-2.4,6-6.5,6-10.9V131L209.3,262.8L201.1,260.9z"/>
		<path fill="#EFF4FB" d="M201.2,260.9v431.7c0.1,0,0.9,0.5,1.1,0.5c2.3,1.1,4.9,1.3,7.3,0.8c2.1,0.1,6.7-2.5,8.4-3.9l191.7-154.6
			c3.7-2.4,6-6.5,6-10.9V131L209.5,262.7L201.2,260.9z"/>
		<path fill="#EEF4FB" d="M201.4,261v431.7c0.2,0,0.9,0.5,1.1,0.5c2.3,1,4.9,1.3,7.3,0.7c2,0.1,6.7-2.6,8.4-3.9l191.5-154.5
			c3.7-2.4,6-6.5,6-10.9V131L209.6,262.6L201.4,261z"/>
		<path fill="#EEF3FB" d="M201.5,261.1v431.6c0.2,0,0.9,0.5,1.1,0.5c2.3,1,4.9,1.2,7.3,0.6c2,0.1,6.7-2.6,8.3-4l191.4-154.5
			c3.7-2.4,6-6.5,6-10.9V131L209.8,262.6L201.5,261.1z"/>
		<path fill="#EDF3FA" d="M201.7,261.2v431.6c0.2,0,0.9,0.5,1.1,0.5c2.3,1,4.9,1.1,7.3,0.5c1.9,0.1,6.7-2.7,8.3-4l191.3-154.4
			c3.7-2.4,6-6.5,6-10.9V131L209.9,262.5L201.7,261.2z"/>
		<path fill="#EDF2FA" d="M201.8,261.3v431.6c0.2,0,0.9,0.5,1.1,0.5c2.3,0.9,4.9,1.1,7.3,0.5c1.9,0.1,6.7-2.8,8.3-4.1l191.2-154.3
			c3.7-2.4,6-6.5,6-10.9V131L210,262.4L201.8,261.3z"/>
		<path fill="#ECF2FA" d="M202,261.4v431.6c0.2,0,0.9,0.5,1.1,0.4c2.3,0.9,4.9,1,7.3,0.4c1.8,0.1,6.7-2.9,8.2-4.1l191.1-154.2
			c3.7-2.4,6-6.5,6-10.9V131L210.2,262.3L202,261.4z"/>
		<path fill="#EBF2FA" d="M202.1,261.4V693c0.2,0,0.9,0.4,1.1,0.4c2.4,0.9,4.9,1,7.3,0.3c1.8,0.1,6.7-3,8.2-4.2l191-154.1
			c3.7-2.4,6-6.5,6-10.9V131L210.3,262.2L202.1,261.4z"/>
		<path fill="#EBF1FA" d="M202.3,261.5v431.5c0.2,0,0.9,0.4,1.1,0.4c2.4,0.8,4.9,0.9,7.3,0.2c1.7,0.1,6.7-3,8.1-4.2l190.9-154
			c3.7-2.4,6-6.5,6-10.9V131L210.5,262.1L202.3,261.5z"/>
		<path fill="#EAF1FA" d="M202.4,261.6v431.5c0.2,0,0.9,0.4,1.1,0.4c2.4,0.8,4.9,0.8,7.3,0.1c1.7,0.1,6.7-3.1,8.1-4.2l190.8-153.9
			c3.7-2.4,6-6.5,6-10.9V131L210.6,262L202.4,261.6z"/>
		<path fill="#EAF1FA" d="M202.6,261.7v431.5c0.2,0,0.9,0.4,1.1,0.4c2.4,0.8,4.9,0.8,7.3,0c1.6,0.1,6.7-3.2,8.1-4.3l190.6-153.8
			c3.7-2.4,6-6.5,6-10.9V131l-205,131L202.6,261.7z"/>
		<path fill="#E9F0F9" d="M202.7,261.8v431.5c0.2,0,0.9,0.4,1.1,0.4c2.4,0.7,4.9,0.7,7.3-0.1c1.6,0.1,6.7-3.3,8-4.3l190.5-153.7
			c3.7-2.4,6-6.5,6-10.9V131L210.9,261.8L202.7,261.8z"/>
		<path fill="#E9F0F9" d="M202.9,261.9v431.5c0.2,0,0.9,0.4,1.1,0.4c2.4,0.7,4.9,0.6,7.3-0.2c1.5,0.1,6.8-3.4,8-4.4l190.4-153.6
			c3.7-2.4,6-6.5,6-10.9V131L211,261.8L202.9,261.9z"/>
		<path fill="#E8F0F9" d="M203.1,261.9v431.4c0.2,0,0.9,0.4,1.1,0.3c2.4,0.7,4.9,0.6,7.3-0.3c1.4,0.1,6.8-3.4,7.9-4.4l190.3-153.5
			c3.7-2.4,6-6.5,6-10.9V131L211.1,261.7L203.1,261.9z"/>
		<path fill="#E7EFF9" d="M203.2,262v431.4c0.2,0,0.9,0.3,1.1,0.3c2.4,0.6,4.9,0.5,7.3-0.4c1.4,0.1,6.8-3.5,7.9-4.5l190.2-153.5
			c3.7-2.4,6-6.5,6-10.9V131L211.3,261.6L203.2,262z"/>
		<path fill="#E7EFF9" d="M203.4,262.1v431.4c0.2,0,0.9,0.3,1.1,0.3c2.4,0.6,4.9,0.4,7.3-0.5c1.3,0.1,6.8-3.6,7.9-4.5l190.1-153.4
			c3.7-2.4,6-6.5,6-10.9V131L211.4,261.5L203.4,262.1z"/>
		<path fill="#E6EEF9" d="M203.5,262.2v431.4c0.3,0,0.9,0.3,1.2,0.3c2.4,0.6,4.9,0.4,7.3-0.6c1.3,0.1,6.8-3.7,7.8-4.5l190-153.3
			c3.7-2.4,6-6.5,6-10.9V131L211.6,261.4L203.5,262.2z"/>
		<path fill="#E6EEF9" d="M203.7,262.3v431.4c0.3,0,0.9,0.3,1.2,0.3c2.4,0.5,5,0.3,7.3-0.7c1.2,0.1,6.8-3.7,7.8-4.6l189.9-153.2
			c3.7-2.4,6-6.5,6-10.9V131l-204,130.4L203.7,262.3z"/>
		<path fill="#E5EEF9" d="M203.8,262.4v431.3c0.3,0,0.9,0.3,1.2,0.3c2.4,0.5,5,0.2,7.3-0.8c1.2,0.1,6.8-3.8,7.7-4.6l189.7-153.1
			c3.7-2.4,6-6.5,6-10.9V131L211.8,261.2L203.8,262.4z"/>
		<path fill="#E5EDF8" d="M204,262.4v431.3c0.3,0,0.9,0.3,1.2,0.3c2.4,0.5,5,0.2,7.2-0.9c1.1,0.1,6.8-3.9,7.7-4.7l189.6-153
			c3.7-2.4,6-6.5,6-10.9V131L212,261.1L204,262.4z"/>
		<path fill="#E4EDF8" d="M204.1,262.5v431.3c0.3,0,0.9,0.3,1.2,0.2c2.4,0.4,5,0.1,7.2-1c1.1,0.1,6.8-4,7.7-4.7l189.5-152.9
			c3.7-2.4,6-6.5,6-10.9V131L212.1,261.1L204.1,262.5z"/>
		<path fill="#E3EDF8" d="M204.3,262.6v431.3c0.3,0,0.9,0.2,1.2,0.2c2.4,0.4,5,0,7.2-1.1c1,0.1,6.8-4.1,7.6-4.7l189.4-152.8
			c3.7-2.4,6-6.5,6-10.9V131L212.2,261L204.3,262.6z"/>
		<path fill="#E3ECF8" d="M204.4,262.7v431.3c0.3,0,0.9,0.2,1.2,0.2c2.4,0.4,5,0,7.2-1.2c1,0.1,6.8-4.1,7.6-4.8l189.3-152.7
			c3.7-2.4,6-6.5,6-10.9V131L212.4,260.9L204.4,262.7z"/>
		<path fill="#E2ECF8" d="M204.6,262.8V694c0.3,0,0.9,0.2,1.2,0.2c2.4,0.3,5-0.1,7.2-1.3c0.9,0.1,6.8-4.2,7.5-4.8l189.2-152.6
			c3.7-2.4,6-6.5,6-10.9V131L212.5,260.8L204.6,262.8z"/>
		<path fill="#E2ECF8" d="M204.8,262.8v431.2c0.3,0,0.9,0.2,1.2,0.2c2.5,0.3,5-0.2,7.2-1.4c0.9,0.1,6.8-4.3,7.5-4.9l189.1-152.5
			c3.7-2.4,6-6.5,6-10.9V131l-203,129.7L204.8,262.8z"/>
		<path fill="#E1EBF8" d="M204.9,262.9v431.2c0.3,0,0.9,0.2,1.2,0.2c2.5,0.3,5-0.2,7.2-1.5c0.8,0.1,6.8-4.4,7.5-4.9l189-152.5
			c3.7-2.4,6-6.5,6-10.9V131L212.8,260.6L204.9,262.9z"/>
		<path fill="#E0EBF8" d="M205.1,263v431.2c0.3,0,0.9,0.2,1.2,0.1c2.5,0.2,5-0.3,7.2-1.6c0.8,0.1,6.8-4.5,7.4-5l188.8-152.4
			c3.7-2.4,6-6.5,6-10.9V131L212.9,260.5L205.1,263z"/>
		<path fill="#E0EBF7" d="M205.2,263.1v431.2c0.3,0,0.9,0.2,1.2,0.1c2.5,0.2,5-0.4,7.2-1.7c0.7,0,6.8-4.5,7.4-5l188.7-152.3
			c3.7-2.4,6-6.5,6-10.9V131L213.1,260.4L205.2,263.1z"/>
		<path fill="#DFEAF7" d="M205.4,263.2v431.1c0.3,0,0.9,0.1,1.2,0.1c2.5,0.2,5-0.4,7.2-1.8c0.6,0,6.8-4.6,7.4-5l188.6-152.2
			c3.7-2.4,6-6.5,6-10.9V131L213.2,260.3L205.4,263.2z"/>
		<path fill="#DFEAF7" d="M205.5,263.3v431.1c0.3,0,0.9,0.1,1.2,0.1c2.5,0.1,5-0.5,7.2-1.9c0.6,0,6.8-4.7,7.3-5.1l188.5-152.1
			c3.7-2.4,6-6.5,6-10.9V131L213.3,260.3L205.5,263.3z"/>
		<path fill="#DEE9F7" d="M205.7,263.3v431.1c0.3,0,0.9,0.1,1.2,0.1c2.5,0.1,5-0.6,7.2-2c0.5,0,6.8-4.8,7.3-5.1l188.4-152
			c3.7-2.4,6-6.5,6-10.9V131L213.5,260.2L205.7,263.3z"/>
		<path fill="#DEE9F7" d="M205.8,263.4v431.1c0.4,0,0.9,0.1,1.2,0.1c2.5,0.1,5-0.6,7.2-2.1c0.5,0,6.8-4.8,7.2-5.2l188.3-151.9
			c3.7-2.4,6-6.5,6-10.9V131L213.6,260.1L205.8,263.4z"/>
		<path fill="#DDE9F7" d="M206,263.5v431.1c0.4,0,0.9,0.1,1.2,0.1c2.5,0,5-0.7,7.2-2.2c0.4,0,6.8-4.9,7.2-5.2l188.2-151.8
			c3.7-2.4,6-6.5,6-10.9V131L213.8,260L206,263.5z"/>
		<path fill="#DCE8F7" d="M206.1,263.6v431c0.4,0,0.9,0.1,1.2,0c2.5,0,5-0.8,7.2-2.3c0.4,0,6.8-5,7.2-5.3l188.1-151.7
			c3.7-2.4,6-6.5,6-10.9V131L213.9,259.9L206.1,263.6z"/>
		<path fill="#DCE8F7" d="M206.3,263.7v431c0.4,0,0.8,0.1,1.2,0c2.5,0,5-0.8,7.2-2.4c0.3,0,6.9-5.1,7.1-5.3l187.9-151.6
			c3.7-2.4,6-6.5,6-10.9V131L214,259.8L206.3,263.7z"/>
		<path fill="#DBE8F6" d="M206.4,263.8v431c0.4,0,0.8,0.1,1.2,0c2.5-0.1,5-0.9,7.2-2.5c0.3,0,6.9-5.2,7.1-5.3l187.8-151.5
			c3.7-2.4,6-6.5,6-10.9V131L214.2,259.7L206.4,263.8z"/>
		<path fill="#DBE7F6" d="M206.6,263.8v431c0.4,0,0.8,0,1.2,0c2.5-0.1,5-1,7.2-2.6c0.2,0,6.9-5.2,7-5.4l187.7-151.5
			c3.7-2.4,6-6.5,6-10.9V131L214.3,259.6L206.6,263.8z"/>
		<path fill="#DAE7F6" d="M206.8,263.9v431c0.4,0,0.8,0,1.2,0c2.5-0.1,5-1,7.2-2.7c0.2,0,6.9-5.3,7-5.4l187.6-151.4
			c3.7-2.4,6-6.5,6-10.9V131L214.5,259.6L206.8,263.9z"/>
		<path fill="#DAE7F6" d="M206.9,264V695c0.4,0,0.8,0,1.2,0c2.5-0.2,5-1.1,7.1-2.8c0.1,0,6.9-5.4,7-5.5l187.5-151.3
			c3.7-2.4,6-6.5,6-10.9V131L214.6,259.5L206.9,264z"/>
		<path fill="#D9E6F6" d="M207.1,264.1V695c0.4,0,0.8,0,1.2,0c2.5-0.2,5-1.2,7.1-2.9c0.1,0,6.9-5.5,6.9-5.5l187.4-151.2
			c3.7-2.4,6-6.5,6-10.9V131l-201,128.4L207.1,264.1z"/>
		<g>
			<path fill="#D8E6F6" d="M207.2,264.2v430.9c3,0,5.9-1,8.4-3l194.1-156.6c3.7-2.4,6-6.5,6-10.9V131L207.2,264.2z"/>
		</g>
	</g>
	<path fill="#ED1D7D" d="M198,2.4L28.6,96.5L-1.3,131l208.5,133.7L415.7,131l-32.4-34.5L216.4,2.4C210.7-0.8,203.7-0.8,198,2.4z"/>
	<defs>
		<filter id="Adobe_OpacityMaskFilter_2_" filterUnits="userSpaceOnUse" x="56.5" y="8.9" width="299.3" height="184.8">
			<feFlood  style="flood-color:white;flood-opacity:1" result="back"/>
			<feBlend  in="SourceGraphic" in2="back" mode="normal"/>
		</filter>
	</defs>
	<mask maskUnits="userSpaceOnUse" x="56.5" y="8.9" width="299.3" height="184.8" id="SVGID_4_">
		<g filter="url(#Adobe_OpacityMaskFilter_2_)">
			<defs>
				<filter id="Adobe_OpacityMaskFilter_3_" filterUnits="userSpaceOnUse" x="56.5" y="8.9" width="299.3" height="184.8">
					<feFlood  style="flood-color:white;flood-opacity:1" result="back"/>
					<feBlend  in="SourceGraphic" in2="back" mode="normal"/>
				</filter>
			</defs>
			<mask maskUnits="userSpaceOnUse" x="56.5" y="8.9" width="299.3" height="184.8" id="SVGID_4_">
				<g filter="url(#Adobe_OpacityMaskFilter_3_)">
				</g>
			</mask>
			<linearGradient id="SVGID_5_" gradientUnits="userSpaceOnUse" x1="206.1765" y1="145.0016" x2="206.1765" y2="11.0156">
				<stop  offset="0" style="stop-color:#000000"/>
				<stop  offset="1" style="stop-color:#FFFFFF"/>
			</linearGradient>
			<path mask="url(#SVGID_4_)" fill="url(#SVGID_5_)" d="M196.8,11.6l-136,75.6c-5.5,3-5.7,10.8-0.4,14.2l142.4,91
				c2.7,1.7,6.2,1.7,9,0l140.4-91c5.2-3.4,5-11.1-0.4-14.1l-134-75.6C211.1,8,203.3,8,196.8,11.6z"/>
		</g>
	</mask>
	<linearGradient id="SVGID_6_" gradientUnits="userSpaceOnUse" x1="206.1765" y1="145.0016" x2="206.1765" y2="11.0156">
		<stop  offset="0" style="stop-color:#FFFFFF"/>
		<stop  offset="1" style="stop-color:#FFFFFF"/>
	</linearGradient>
	<path opacity="0.5" fill="url(#SVGID_6_)" d="M196.8,11.6l-136,75.6c-5.5,3-5.7,10.8-0.4,14.2l142.4,91c2.7,1.7,6.2,1.7,9,0
		l140.4-91c5.2-3.4,5-11.1-0.4-14.1l-134-75.6C211.1,8,203.3,8,196.8,11.6z"/>
	<g>
		<polygon fill="#ED1D7D" points="28.6,96.5 207.2,207.4 206.5,264.7 -1.3,131 		"/>
		<polygon fill="#ED1F7E" points="28.5,96.6 207.2,207.6 206.5,264.7 -1.3,131 		"/>
		<polygon fill="#ED207E" points="28.4,96.7 207.2,207.7 206.5,264.7 -1.3,131 		"/>
		<polygon fill="#ED227E" points="28.3,96.8 207.2,207.9 206.5,264.7 -1.3,131 		"/>
		<polygon fill="#ED237F" points="28.2,96.9 207.2,208.1 206.5,264.7 -1.3,131 		"/>
		<polygon fill="#ED247F" points="28.1,97 207.2,208.2 206.5,264.7 -1.3,131 		"/>
		<polygon fill="#ED2680" points="28.1,97.2 207.2,208.4 206.5,264.7 -1.3,131 		"/>
		<polygon fill="#ED2780" points="28,97.3 207.2,208.6 206.5,264.7 -1.3,131 		"/>
		<polygon fill="#ED2881" points="27.9,97.4 207.2,208.7 206.5,264.7 -1.3,131 		"/>
		<polygon fill="#ED2981" points="27.8,97.5 207.2,208.9 206.5,264.7 -1.3,131 		"/>
		<polygon fill="#ED2B82" points="27.7,97.6 207.2,209.1 206.5,264.7 -1.3,131 		"/>
		<polygon fill="#ED2C82" points="27.6,97.7 207.2,209.2 206.5,264.7 -1.3,131 		"/>
		<polygon fill="#ED2D83" points="27.5,97.8 207.2,209.4 206.5,264.7 -1.3,131 		"/>
		<polygon fill="#EE2E83" points="27.4,97.9 207.2,209.6 206.5,264.7 -1.3,131 		"/>
		<polygon fill="#EE2F84" points="27.3,98 207.2,209.8 206.5,264.7 -1.3,131 		"/>
		<polygon fill="#EE3084" points="27.2,98.1 207.2,209.9 206.5,264.7 -1.3,131 		"/>
		<polygon fill="#EE3185" points="27.1,98.3 207.2,210.1 206.5,264.7 -1.3,131 		"/>
		<polygon fill="#EE3285" points="27,98.4 207.2,210.3 206.5,264.7 -1.3,131 		"/>
		<polygon fill="#EE3386" points="26.9,98.5 207.2,210.4 206.5,264.7 -1.3,131 		"/>
		<polygon fill="#EE3486" points="26.8,98.6 207.2,210.6 206.5,264.7 -1.3,131 		"/>
		<polygon fill="#EE3587" points="26.7,98.7 207.2,210.8 206.5,264.7 -1.3,131 		"/>
		<polygon fill="#EE3687" points="26.6,98.8 207.2,210.9 206.5,264.7 -1.3,131 		"/>
		<polygon fill="#EE3788" points="26.5,98.9 207.2,211.1 206.5,264.7 -1.3,131 		"/>
		<polygon fill="#EE3889" points="26.4,99 207.2,211.3 206.5,264.7 -1.3,131 		"/>
		<polygon fill="#EE3989" points="26.3,99.1 207.2,211.4 206.5,264.7 -1.3,131 		"/>
		<polygon fill="#EE3A8A" points="26.2,99.2 207.2,211.6 206.5,264.7 -1.3,131 		"/>
		<polygon fill="#EE3B8A" points="26.1,99.4 207.2,211.8 206.5,264.7 -1.3,131 		"/>
		<polygon fill="#EE3C8B" points="26,99.5 207.2,212 206.5,264.7 -1.3,131 		"/>
		<polygon fill="#EE3D8B" points="26,99.6 207.2,212.1 206.5,264.7 -1.3,131 		"/>
		<polygon fill="#EE3E8C" points="25.9,99.7 207.2,212.3 206.5,264.7 -1.3,131 		"/>
		<polygon fill="#EE3F8C" points="25.8,99.8 207.2,212.5 206.5,264.7 -1.3,131 		"/>
		<polygon fill="#EE3F8D" points="25.7,99.9 207.2,212.6 206.5,264.7 -1.3,131 		"/>
		<polygon fill="#EE408D" points="25.6,100 207.2,212.8 206.5,264.7 -1.3,131 		"/>
		<polygon fill="#EE418E" points="25.5,100.1 207.2,213 206.5,264.7 -1.3,131 		"/>
		<polygon fill="#EE428E" points="25.4,100.2 207.2,213.1 206.5,264.7 -1.3,131 		"/>
		<polygon fill="#EE438F" points="25.3,100.3 207.2,213.3 206.5,264.7 -1.3,131 		"/>
		<polygon fill="#EE438F" points="25.2,100.5 207.2,213.5 206.5,264.7 -1.3,131 		"/>
		<polygon fill="#EE4490" points="25.1,100.6 207.2,213.7 206.5,264.7 -1.3,131 		"/>
		<polygon fill="#EE4590" points="25,100.7 207.2,213.8 206.5,264.7 -1.3,131 		"/>
		<polygon fill="#EE4691" points="24.9,100.8 207.2,214 206.5,264.7 -1.3,131 		"/>
		<polygon fill="#EE4792" points="24.8,100.9 207.2,214.2 206.5,264.7 -1.3,131 		"/>
		<polygon fill="#EE4892" points="24.7,101 207.2,214.3 206.5,264.7 -1.3,131 		"/>
		<polygon fill="#EE4893" points="24.6,101.1 207.2,214.5 206.5,264.7 -1.3,131 		"/>
		<polygon fill="#EE4993" points="24.5,101.2 207.2,214.7 206.5,264.7 -1.3,131 		"/>
		<polygon fill="#EE4A94" points="24.4,101.3 207.2,214.8 206.5,264.7 -1.3,131 		"/>
		<polygon fill="#EE4B94" points="24.3,101.4 207.2,215 206.5,264.7 -1.3,131 		"/>
		<polygon fill="#EE4C95" points="24.2,101.6 207.2,215.2 206.5,264.7 -1.3,131 		"/>
		<polygon fill="#EF4C95" points="24.1,101.7 207.2,215.3 206.5,264.7 -1.3,131 		"/>
		<polygon fill="#EF4D96" points="24,101.8 207.2,215.5 206.5,264.7 -1.3,131 		"/>
		<polygon fill="#EF4E97" points="23.9,101.9 207.2,215.7 206.5,264.7 -1.3,131 		"/>
		<polygon fill="#EF4F97" points="23.9,102 207.2,215.9 206.5,264.7 -1.3,131 		"/>
		<polygon fill="#EF4F98" points="23.8,102.1 207.2,216 206.5,264.7 -1.3,131 		"/>
		<polygon fill="#EF5098" points="23.7,102.2 207.2,216.2 206.5,264.7 -1.3,131 		"/>
		<polygon fill="#EF5199" points="23.6,102.3 207.2,216.4 206.5,264.7 -1.3,131 		"/>
		<polygon fill="#EF529A" points="23.5,102.4 207.2,216.5 206.5,264.7 -1.3,131 		"/>
		<polygon fill="#EF529A" points="23.4,102.5 207.2,216.7 206.5,264.7 -1.3,131 		"/>
		<polygon fill="#EF539B" points="23.3,102.7 207.2,216.9 206.5,264.7 -1.3,131 		"/>
		<polygon fill="#EF549C" points="23.2,102.8 207.2,217 206.5,264.7 -1.3,131 		"/>
		<polygon fill="#EF549C" points="23.1,102.9 207.2,217.2 206.5,264.7 -1.3,131 		"/>
		<polygon fill="#EF559D" points="23,103 207.2,217.4 206.5,264.7 -1.3,131 		"/>
		<polygon fill="#EF569E" points="22.9,103.1 207.2,217.5 206.5,264.7 -1.3,131 		"/>
		<polygon fill="#EF579F" points="22.8,103.2 207.2,217.7 206.5,264.7 -1.3,131 		"/>
	</g>
	<g>
		<polygon fill="#ED1D7D" points="207.2,207.4 206.5,264.7 415.7,131 383.3,96.5 		"/>
		<polygon fill="#EC1D7D" points="207.2,207.6 206.5,264.6 415.7,131 383.4,96.6 		"/>
		<polygon fill="#EB1D7D" points="207.2,207.7 206.5,264.6 415.7,131 383.5,96.7 		"/>
		<polygon fill="#EA1D7D" points="207.2,207.9 206.5,264.6 415.7,131 383.6,96.8 		"/>
		<polygon fill="#EA1D7E" points="207.2,208.1 206.5,264.5 415.7,131 383.7,96.9 		"/>
		<polygon fill="#E91D7E" points="207.2,208.2 206.5,264.5 415.7,131 383.8,97 		"/>
		<polygon fill="#E81C7E" points="207.2,208.4 206.5,264.5 415.7,131 383.9,97.2 		"/>
		<polygon fill="#E71C7E" points="207.2,208.6 206.5,264.5 415.7,131 384,97.3 		"/>
		<polygon fill="#E71C7E" points="207.2,208.7 206.5,264.4 415.7,131 384.1,97.4 		"/>
		<polygon fill="#E61C7E" points="207.2,208.9 206.5,264.4 415.7,131 384.2,97.5 		"/>
		<polygon fill="#E61C7E" points="207.2,209.1 206.5,264.4 415.7,131 384.3,97.6 		"/>
		<polygon fill="#E51C7E" points="207.2,209.2 206.5,264.3 415.7,131 384.4,97.7 		"/>
		<polygon fill="#E51C7F" points="207.2,209.4 206.5,264.3 415.7,131 384.5,97.8 		"/>
		<polygon fill="#E41B7F" points="207.2,209.6 206.5,264.3 415.7,131 384.6,97.9 		"/>
		<polygon fill="#E31B7F" points="207.2,209.8 206.5,264.2 415.7,131 384.7,98 		"/>
		<polygon fill="#E31B7F" points="207.2,209.9 206.5,264.2 415.7,131 384.8,98.1 		"/>
		<polygon fill="#E21B7F" points="207.2,210.1 206.5,264.2 415.7,131 384.9,98.3 		"/>
		<polygon fill="#E21B7F" points="207.2,210.3 206.5,264.2 415.7,131 385,98.4 		"/>
		<polygon fill="#E11A7F" points="207.2,210.4 206.5,264.1 415.7,131 385.1,98.5 		"/>
		<polygon fill="#E11A7F" points="207.2,210.6 206.5,264.1 415.7,131 385.2,98.6 		"/>
		<polygon fill="#E01A80" points="207.2,210.8 206.5,264.1 415.7,131 385.3,98.7 		"/>
		<polygon fill="#E01A80" points="207.2,210.9 206.5,264 415.7,131 385.5,98.8 		"/>
		<polygon fill="#DF1A80" points="207.2,211.1 206.5,264 415.7,131 385.6,98.9 		"/>
		<polygon fill="#DF1A80" points="207.2,211.3 206.5,264 415.7,131 385.7,99 		"/>
		<polygon fill="#DE1980" points="207.2,211.4 206.5,263.9 415.7,131 385.8,99.1 		"/>
		<polygon fill="#DE1980" points="207.2,211.6 206.5,263.9 415.7,131 385.9,99.2 		"/>
		<polygon fill="#DD1980" points="207.2,211.8 206.5,263.9 415.7,131 386,99.4 		"/>
		<polygon fill="#DD1980" points="207.2,212 206.5,263.9 415.7,131 386.1,99.5 		"/>
		<polygon fill="#DC1980" points="207.2,212.1 206.5,263.8 415.7,131 386.2,99.6 		"/>
		<polygon fill="#DB1881" points="207.2,212.3 206.5,263.8 415.7,131 386.3,99.7 		"/>
		<polygon fill="#DB1881" points="207.2,212.5 206.5,263.8 415.7,131 386.4,99.8 		"/>
		<polygon fill="#DA1881" points="207.2,212.6 206.5,263.7 415.7,131 386.5,99.9 		"/>
		<polygon fill="#DA1881" points="207.2,212.8 206.5,263.7 415.7,131 386.6,100 		"/>
		<polygon fill="#D91881" points="207.2,213 206.5,263.7 415.7,131 386.7,100.1 		"/>
		<polygon fill="#D91881" points="207.2,213.1 206.5,263.6 415.7,131 386.8,100.2 		"/>
		<polygon fill="#D81881" points="207.2,213.3 206.5,263.6 415.7,131 386.9,100.3 		"/>
		<polygon fill="#D81882" points="207.2,213.5 206.5,263.6 415.7,131 387,100.5 		"/>
		<polygon fill="#D71882" points="207.2,213.7 206.5,263.6 415.7,131 387.1,100.6 		"/>
		<polygon fill="#D61782" points="207.2,213.8 206.5,263.5 415.7,131 387.2,100.7 		"/>
		<polygon fill="#D61782" points="207.2,214 206.5,263.5 415.7,131 387.3,100.8 		"/>
		<polygon fill="#D51782" points="207.2,214.2 206.5,263.5 415.7,131 387.4,100.9 		"/>
		<polygon fill="#D51782" points="207.2,214.3 206.5,263.4 415.7,131 387.5,101 		"/>
		<polygon fill="#D41782" points="207.2,214.5 206.5,263.4 415.7,131 387.6,101.1 		"/>
		<polygon fill="#D41783" points="207.2,214.7 206.5,263.4 415.7,131 387.7,101.2 		"/>
		<polygon fill="#D31783" points="207.2,214.8 206.5,263.3 415.7,131 387.8,101.3 		"/>
		<polygon fill="#D31783" points="207.2,215 206.5,263.3 415.7,131 387.9,101.4 		"/>
		<polygon fill="#D21783" points="207.2,215.2 206.5,263.3 415.7,131 388,101.6 		"/>
		<polygon fill="#D21783" points="207.2,215.3 206.5,263.3 415.7,131 388.1,101.7 		"/>
		<polygon fill="#D11783" points="207.2,215.5 206.5,263.2 415.7,131 388.2,101.8 		"/>
		<polygon fill="#D11783" points="207.2,215.7 206.5,263.2 415.7,131 388.4,101.9 		"/>
		<polygon fill="#D01684" points="207.2,215.9 206.5,263.2 415.7,131 388.5,102 		"/>
		<polygon fill="#D01684" points="207.2,216 206.5,263.1 415.7,131 388.6,102.1 		"/>
		<polygon fill="#CF1684" points="207.2,216.2 206.5,263.1 415.7,131 388.7,102.2 		"/>
		<polygon fill="#CE1684" points="207.2,216.4 206.5,263.1 415.7,131 388.8,102.3 		"/>
		<polygon fill="#CE1684" points="207.2,216.5 206.5,263 415.7,131 388.9,102.4 		"/>
		<polygon fill="#CD1684" points="207.2,216.7 206.5,263 415.7,131 389,102.5 		"/>
		<polygon fill="#CD1684" points="207.2,216.9 206.5,263 415.7,131 389.1,102.7 		"/>
		<polygon fill="#CC1684" points="207.2,217 206.5,263 415.7,131 389.2,102.8 		"/>
		<polygon fill="#CC1685" points="207.2,217.2 206.5,262.9 415.7,131 389.3,102.9 		"/>
		<polygon fill="#CB1685" points="207.2,217.4 206.5,262.9 415.7,131 389.4,103 		"/>
		<polygon fill="#CB1685" points="207.2,217.5 206.5,262.9 415.7,131 389.5,103.1 		"/>
		<polygon fill="#CA1685" points="207.2,217.7 206.5,262.8 415.7,131 389.6,103.2 		"/>
	</g>
</g>
<g>
	<path fill="#D8E6F6" d="M17.3,407.9c0-4.9,0.9-8.6,2.6-11.1c1.7-2.5,4-3.9,6.9-4.3c2.9-0.4,6.2,0.1,10,1.7c3.8,1.6,7.7,4,11.8,7.3
		c4.1,3.3,8,7.2,11.8,11.6c3.8,4.5,7.1,9.2,10,14.3c2.9,5.1,5.2,10.2,6.9,15.4c1.7,5.2,2.6,10.3,2.6,15.2v85.9
		c0,4.9-0.9,8.6-2.6,11.1c-1.7,2.5-4,3.9-6.9,4.3c-2.9,0.4-6.2-0.2-10-1.7c-3.8-1.6-7.7-4-11.8-7.3c-4.1-3.3-8-7.2-11.8-11.6
		c-3.8-4.5-7.1-9.2-10-14.3c-2.9-5-5.2-10.2-6.9-15.4c-1.7-5.2-2.6-10.3-2.6-15.2V407.9z M38.3,510.6c0,3,1,6.3,2.9,9.8
		c1.9,3.5,4.4,6.5,7.4,8.9c3,2.4,5.5,3.4,7.4,3c1.9-0.4,2.9-2.2,2.9-5.2v-85.9c0-3-1-6.3-2.9-9.8c-1.9-3.5-4.4-6.5-7.4-8.9
		c-3-2.4-5.5-3.4-7.4-3c-1.9,0.4-2.9,2.2-2.9,5.2V510.6z"/>
	<path fill="#D8E6F6" d="M148.6,483.1l-23.8,42.3l0.4,0.7c0.7,0,1.7,0.4,3.2,1.2c1.4,0.8,3.3,2.2,5.6,4c3.7,3,7.1,6.6,10.3,10.9
		c3.1,4.3,5.6,8.5,7.4,12.7c1,2.3,1.7,4.4,2.3,6.3c0.5,1.9,1,4.3,1.4,7.1c0.3,2.7,0.5,6,0.6,9.8c0.1,3.9,0.2,8.7,0.2,14.4
		c0,4.8-0.1,8.7-0.2,11.6c-0.1,3-0.3,5.4-0.6,7.2c-0.4,1.9-0.9,3.3-1.5,4.3c-0.6,1-1.4,2-2.4,2.8c-2.7,2.3-6.4,2.9-11,1.6
		c-4.6-1.2-9.8-4.1-15.5-8.8c-5.8-4.6-10.9-10-15.4-16.2c-4.5-6.2-8.1-12.5-10.9-19.1c-1.1-2.5-2-4.8-2.6-6.8
		c-0.6-2-1.1-4.2-1.3-6.6c-0.4-2.4-0.7-5.2-0.8-8.4c-0.1-3.2-0.2-7.2-0.2-12c0-4.5,0.1-8.2,0.2-11c0.1-2.8,0.3-5.2,0.6-7.2
		c0.3-1.8,0.7-3.4,1.2-4.7c0.5-1.3,1.2-2.6,1.8-4l27.5-51.4L148.6,483.1z M135.2,561.3c0-3.1-1-6.5-3.1-10.1
		c-2.1-3.6-4.5-6.5-7.2-8.7c-2.7-2.2-5.1-3.2-7.2-2.9c-2.1,0.3-3.1,2-3.1,5.1v27.1c0,3.2,1,6.5,3.1,10.1c2.1,3.6,4.4,6.4,7.2,8.7
		c2.7,2.2,5.1,3.2,7.2,2.9c2.1-0.3,3.1-2,3.1-5.1V561.3z"/>
</g>
</svg>
