<?xml version="1.0" encoding="utf-8"?>
<!-- Generator: Adobe Illustrator 18.1.1, SVG Export Plug-In . SVG Version: 6.00 Build 0)  -->
<svg version="1.1" id="Layer_1" xmlns="http://www.w3.org/2000/svg" xmlns:xlink="http://www.w3.org/1999/xlink" x="0px" y="0px"
	 viewBox="0 0 596.8 836.4" enable-background="new 0 0 596.8 836.4" xml:space="preserve">
<defs>
	<filter id="Adobe_OpacityMaskFilter" filterUnits="userSpaceOnUse" x="60.2" y="407" width="530.6" height="429.4">
		<feFlood  style="flood-color:white;flood-opacity:1" result="back"/>
		<feBlend  in="SourceGraphic" in2="back" mode="normal"/>
	</filter>
</defs>
<mask maskUnits="userSpaceOnUse" x="60.2" y="407" width="530.6" height="429.4" id="SVGID_1_">
	<g filter="url(#Adobe_OpacityMaskFilter)">
		<defs>
			<filter id="Adobe_OpacityMaskFilter_1_" filterUnits="userSpaceOnUse" x="60.2" y="407" width="530.6" height="429.4">
				<feFlood  style="flood-color:white;flood-opacity:1" result="back"/>
				<feBlend  in="SourceGraphic" in2="back" mode="normal"/>
			</filter>
		</defs>
		<mask maskUnits="userSpaceOnUse" x="60.2" y="407" width="530.6" height="429.4" id="SVGID_1_">
			<g filter="url(#Adobe_OpacityMaskFilter_1_)">
			</g>
		</mask>
		<linearGradient id="SVGID_2_" gradientUnits="userSpaceOnUse" x1="476.832" y1="746.3445" x2="139.3584" y2="468.4247">
			<stop  offset="6.157600e-04" style="stop-color:#000000"/>
			<stop  offset="1" style="stop-color:#FFFFFF"/>
		</linearGradient>
		<polygon mask="url(#SVGID_1_)" fill="url(#SVGID_2_)" points="590.8,665.5 379.4,836.4 60.2,577.9 271.5,407 		"/>
	</g>
</mask>
<linearGradient id="SVGID_3_" gradientUnits="userSpaceOnUse" x1="476.832" y1="746.3445" x2="139.3584" y2="468.4247">
	<stop  offset="6.157600e-04" style="stop-color:#FFFFFF"/>
	<stop  offset="1" style="stop-color:#BED3E7"/>
</linearGradient>
<polygon fill="url(#SVGID_3_)" points="590.8,665.5 379.4,836.4 60.2,577.9 271.5,407 "/>
<g>
	<path fill="#FFFFFF" d="M-2.1,131v393.6c0,4.4,2.2,8.5,6,10.9L198,692.1c4.9,4,11.9,4,16.8,0l194.1-156.6c3.7-2.4,6-6.5,6-10.9V131
		L205.6,264.7L-2.1,131z"/>
	<g>
		<g>
			<path fill="#FFFFFF" d="M205.6,264.7l-8.6-5.6v432.1l1,0.8c4.9,4,11.9,4,16.8,0l194.1-156.6c3.7-2.4,6-6.5,6-10.9V131
				L205.6,264.7z"/>
		</g>
		<path fill="#FEFEFF" d="M197.2,259.2v432.1c0,0,1,0.8,1,0.8c2.2,1.8,4.8,2.7,7.5,2.9c3.2,0.2,6.6-0.8,9.3-3l194-156.6
			c3.7-2.4,6-6.5,6-10.9V131L205.8,264.6L197.2,259.2z"/>
		<path fill="#FDFEFF" d="M197.3,259.3v432.1c0,0,1,0.8,1,0.8c2.2,1.7,4.8,2.7,7.5,2.8c3.2,0.2,6.6-0.9,9.2-3.1l193.9-156.5
			c3.7-2.4,6-6.5,6-10.9V131l-209,133.5L197.3,259.3z"/>
		<path fill="#FCFDFE" d="M197.5,259.4v432.1c0,0,1,0.8,1,0.8c2.2,1.7,4.8,2.6,7.4,2.7c3.1,0.2,6.6-1,9.2-3.1l193.8-156.4
			c3.7-2.4,6-6.5,6-10.9V131L206.1,264.4L197.5,259.4z"/>
		<path fill="#FBFCFE" d="M197.6,259.4v432c0,0,1,0.8,1,0.8c2.2,1.7,4.8,2.5,7.4,2.6c3.1,0.2,6.6-1.1,9.1-3.2l193.7-156.3
			c3.7-2.4,6-6.5,6-10.9V131L206.2,264.3L197.6,259.4z"/>
		<path fill="#FAFCFE" d="M197.8,259.5v432c0,0,1,0.8,1,0.8c2.2,1.6,4.8,2.5,7.4,2.5c3,0.2,6.6-1.2,9.1-3.2l193.6-156.2
			c3.7-2.4,6-6.5,6-10.9V131L206.3,264.2L197.8,259.5z"/>
		<path fill="#F9FBFE" d="M197.9,259.6v432c0,0,1,0.8,1,0.8c2.2,1.6,4.8,2.4,7.4,2.4c2.9,0.2,6.6-1.2,9.1-3.2l193.5-156.1
			c3.7-2.4,6-6.5,6-10.9V131L206.5,264.1L197.9,259.6z"/>
		<path fill="#F8FBFD" d="M198.1,259.7v432c0,0,1,0.7,1,0.7c2.2,1.6,4.8,2.3,7.4,2.3c2.9,0.2,6.6-1.3,9-3.3l193.4-156
			c3.7-2.4,6-6.5,6-10.9V131L206.6,264L198.1,259.7z"/>
		<path fill="#F8FAFD" d="M198.3,259.8v432c0.1,0,1,0.7,1,0.7c2.2,1.5,4.8,2.3,7.4,2.2c2.8,0.2,6.6-1.4,9-3.3l193.2-155.9
			c3.7-2.4,6-6.5,6-10.9V131L206.8,264L198.3,259.8z"/>
		<path fill="#F7FAFD" d="M198.4,259.9v431.9c0.1,0,1,0.7,1,0.7c2.2,1.5,4.8,2.2,7.4,2.1c2.8,0.2,6.6-1.5,8.9-3.4l193.1-155.8
			c3.7-2.4,6-6.5,6-10.9V131l-208,132.9L198.4,259.9z"/>
		<path fill="#F6F9FD" d="M198.6,259.9v431.9c0.1,0,1,0.7,1.1,0.7c2.2,1.5,4.8,2.1,7.4,2c2.7,0.2,6.7-1.6,8.9-3.4l193-155.7
			c3.7-2.4,6-6.5,6-10.9V131L207,263.8L198.6,259.9z"/>
		<path fill="#F6F9FD" d="M198.7,260v431.9c0.1,0,1,0.7,1.1,0.7c2.2,1.4,4.8,2.1,7.4,1.9c2.7,0.2,6.7-1.6,8.9-3.4l192.9-155.6
			c3.7-2.4,6-6.5,6-10.9V131L207.2,263.7L198.7,260z"/>
		<path fill="#F5F8FD" d="M198.9,260.1V692c0.1,0,1,0.7,1.1,0.7c2.3,1.4,4.8,2,7.4,1.8c2.6,0.2,6.7-1.7,8.8-3.5l192.8-155.6
			c3.7-2.4,6-6.5,6-10.9V131L207.3,263.6L198.9,260.1z"/>
		<path fill="#F4F8FC" d="M199,260.2V692c0.1,0,1,0.7,1.1,0.6c2.3,1.4,4.9,1.9,7.4,1.7c2.6,0.2,6.7-1.8,8.8-3.5l192.7-155.5
			c3.7-2.4,6-6.5,6-10.9V131L207.4,263.5L199,260.2z"/>
		<path fill="#F4F7FC" d="M199.2,260.3v431.8c0.1,0,1,0.6,1.1,0.6c2.3,1.3,4.9,1.9,7.4,1.6c2.5,0.2,6.7-1.9,8.7-3.6l192.6-155.4
			c3.7-2.4,6-6.5,6-10.9V131L207.6,263.4L199.2,260.3z"/>
		<path fill="#F3F7FC" d="M199.3,260.4v431.8c0.1,0,1,0.6,1.1,0.6c2.3,1.3,4.9,1.8,7.4,1.5c2.5,0.2,6.7-1.9,8.7-3.6l192.4-155.3
			c3.7-2.4,6-6.5,6-10.9V131L207.7,263.3L199.3,260.4z"/>
		<path fill="#F2F6FC" d="M199.5,260.4v431.8c0.1,0,1,0.6,1.1,0.6c2.3,1.3,4.9,1.7,7.4,1.4c2.4,0.2,6.7-2,8.7-3.7l192.3-155.2
			c3.7-2.4,6-6.5,6-10.9V131l-207,132.3L199.5,260.4z"/>
		<path fill="#F2F6FC" d="M199.6,260.5v431.8c0.1,0,1,0.6,1.1,0.6c2.3,1.2,4.9,1.7,7.4,1.3c2.4,0.2,6.7-2.1,8.6-3.7l192.2-155.1
			c3.7-2.4,6-6.5,6-10.9V131L208,263.2L199.6,260.5z"/>
		<path fill="#F1F6FC" d="M199.8,260.6v431.8c0.1,0,1,0.6,1.1,0.6c2.3,1.2,4.9,1.6,7.4,1.2c2.3,0.2,6.7-2.2,8.6-3.7l192.1-155
			c3.7-2.4,6-6.5,6-10.9V131L208.1,263.1L199.8,260.6z"/>
		<path fill="#F1F5FB" d="M199.9,260.7v431.7c0.1,0,1,0.6,1.1,0.6c2.3,1.2,4.9,1.5,7.4,1.1c2.3,0.2,6.7-2.3,8.5-3.8l192-154.9
			c3.7-2.4,6-6.5,6-10.9V131L208.3,263L199.9,260.7z"/>
		<path fill="#F0F5FB" d="M200.1,260.8v431.7c0.1,0,1,0.6,1.1,0.5c2.3,1.1,4.9,1.5,7.4,1c2.2,0.2,6.7-2.3,8.5-3.8l191.9-154.8
			c3.7-2.4,6-6.5,6-10.9V131L208.4,262.9L200.1,260.8z"/>
		<path fill="#EFF4FB" d="M200.3,260.9v431.7c0.1,0,1,0.5,1.1,0.5c2.3,1.1,4.9,1.4,7.4,0.9c2.1,0.1,6.7-2.4,8.5-3.9l191.8-154.7
			c3.7-2.4,6-6.5,6-10.9V131L208.5,262.8L200.3,260.9z"/>
		<path fill="#EFF4FB" d="M200.4,260.9v431.7c0.1,0,0.9,0.5,1.1,0.5c2.3,1.1,4.9,1.3,7.3,0.8c2.1,0.1,6.7-2.5,8.4-3.9l191.7-154.6
			c3.7-2.4,6-6.5,6-10.9V131L208.7,262.7L200.4,260.9z"/>
		<path fill="#EEF4FB" d="M200.6,261v431.7c0.2,0,0.9,0.5,1.1,0.5c2.3,1,4.9,1.3,7.3,0.7c2,0.1,6.7-2.6,8.4-3.9l191.5-154.5
			c3.7-2.4,6-6.5,6-10.9V131L208.8,262.6L200.6,261z"/>
		<path fill="#EEF3FB" d="M200.7,261.1v431.6c0.2,0,0.9,0.5,1.1,0.5c2.3,1,4.9,1.2,7.3,0.6c2,0.1,6.7-2.6,8.3-4l191.4-154.5
			c3.7-2.4,6-6.5,6-10.9V131L209,262.6L200.7,261.1z"/>
		<path fill="#EDF3FA" d="M200.9,261.2v431.6c0.2,0,0.9,0.5,1.1,0.5c2.3,1,4.9,1.1,7.3,0.5c1.9,0.1,6.7-2.7,8.3-4l191.3-154.4
			c3.7-2.4,6-6.5,6-10.9V131L209.1,262.5L200.9,261.2z"/>
		<path fill="#EDF2FA" d="M201,261.3v431.6c0.2,0,0.9,0.5,1.1,0.5c2.3,0.9,4.9,1.1,7.3,0.5c1.9,0.1,6.7-2.8,8.3-4.1l191.2-154.3
			c3.7-2.4,6-6.5,6-10.9V131L209.2,262.4L201,261.3z"/>
		<path fill="#ECF2FA" d="M201.2,261.4v431.6c0.2,0,0.9,0.5,1.1,0.4c2.3,0.9,4.9,1,7.3,0.4c1.8,0.1,6.7-2.9,8.2-4.1l191.1-154.2
			c3.7-2.4,6-6.5,6-10.9V131L209.4,262.3L201.2,261.4z"/>
		<path fill="#EBF2FA" d="M201.3,261.4V693c0.2,0,0.9,0.4,1.1,0.4c2.4,0.9,4.9,1,7.3,0.3c1.8,0.1,6.7-3,8.2-4.2l191-154.1
			c3.7-2.4,6-6.5,6-10.9V131L209.5,262.2L201.3,261.4z"/>
		<path fill="#EBF1FA" d="M201.5,261.5v431.5c0.2,0,0.9,0.4,1.1,0.4c2.4,0.8,4.9,0.9,7.3,0.2c1.7,0.1,6.7-3,8.1-4.2l190.9-154
			c3.7-2.4,6-6.5,6-10.9V131L209.6,262.1L201.5,261.5z"/>
		<path fill="#EAF1FA" d="M201.6,261.6v431.5c0.2,0,0.9,0.4,1.1,0.4c2.4,0.8,4.9,0.8,7.3,0.1c1.7,0.1,6.7-3.1,8.1-4.2l190.8-153.9
			c3.7-2.4,6-6.5,6-10.9V131L209.8,262L201.6,261.6z"/>
		<path fill="#EAF1FA" d="M201.8,261.7v431.5c0.2,0,0.9,0.4,1.1,0.4c2.4,0.8,4.9,0.8,7.3,0c1.6,0.1,6.7-3.2,8.1-4.3l190.6-153.8
			c3.7-2.4,6-6.5,6-10.9V131l-205,131L201.8,261.7z"/>
		<path fill="#E9F0F9" d="M201.9,261.8v431.5c0.2,0,0.9,0.4,1.1,0.4c2.4,0.7,4.9,0.7,7.3-0.1c1.6,0.1,6.7-3.3,8-4.3l190.5-153.7
			c3.7-2.4,6-6.5,6-10.9V131L210.1,261.8L201.9,261.8z"/>
		<path fill="#E9F0F9" d="M202.1,261.9v431.5c0.2,0,0.9,0.4,1.1,0.4c2.4,0.7,4.9,0.6,7.3-0.2c1.5,0.1,6.8-3.4,8-4.4l190.4-153.6
			c3.7-2.4,6-6.5,6-10.9V131L210.2,261.8L202.1,261.9z"/>
		<path fill="#E8F0F9" d="M202.3,261.9v431.4c0.2,0,0.9,0.4,1.1,0.3c2.4,0.7,4.9,0.6,7.3-0.3c1.4,0.1,6.8-3.4,7.9-4.4l190.3-153.5
			c3.7-2.4,6-6.5,6-10.9V131L210.3,261.7L202.3,261.9z"/>
		<path fill="#E7EFF9" d="M202.4,262v431.4c0.2,0,0.9,0.3,1.1,0.3c2.4,0.6,4.9,0.5,7.3-0.4c1.4,0.1,6.8-3.5,7.9-4.5l190.2-153.5
			c3.7-2.4,6-6.5,6-10.9V131L210.5,261.6L202.4,262z"/>
		<path fill="#E7EFF9" d="M202.6,262.1v431.4c0.2,0,0.9,0.3,1.1,0.3c2.4,0.6,4.9,0.4,7.3-0.5c1.3,0.1,6.8-3.6,7.9-4.5l190.1-153.4
			c3.7-2.4,6-6.5,6-10.9V131L210.6,261.5L202.6,262.1z"/>
		<path fill="#E6EEF9" d="M202.7,262.2v431.4c0.3,0,0.9,0.3,1.2,0.3c2.4,0.6,4.9,0.4,7.3-0.6c1.3,0.1,6.8-3.7,7.8-4.5l190-153.3
			c3.7-2.4,6-6.5,6-10.9V131L210.8,261.4L202.7,262.2z"/>
		<path fill="#E6EEF9" d="M202.9,262.3v431.4c0.3,0,0.9,0.3,1.2,0.3c2.4,0.5,5,0.3,7.3-0.7c1.2,0.1,6.8-3.7,7.8-4.6l189.9-153.2
			c3.7-2.4,6-6.5,6-10.9V131l-204,130.4L202.9,262.3z"/>
		<path fill="#E5EEF9" d="M203,262.4v431.3c0.3,0,0.9,0.3,1.2,0.3c2.4,0.5,5,0.2,7.3-0.8c1.2,0.1,6.8-3.8,7.7-4.6l189.7-153.1
			c3.7-2.4,6-6.5,6-10.9V131L211,261.2L203,262.4z"/>
		<path fill="#E5EDF8" d="M203.2,262.4v431.3c0.3,0,0.9,0.3,1.2,0.3c2.4,0.5,5,0.2,7.2-0.9c1.1,0.1,6.8-3.9,7.7-4.7l189.6-153
			c3.7-2.4,6-6.5,6-10.9V131L211.2,261.1L203.2,262.4z"/>
		<path fill="#E4EDF8" d="M203.3,262.5v431.3c0.3,0,0.9,0.3,1.2,0.2c2.4,0.4,5,0.1,7.2-1c1.1,0.1,6.8-4,7.7-4.7l189.5-152.9
			c3.7-2.4,6-6.5,6-10.9V131L211.3,261.1L203.3,262.5z"/>
		<path fill="#E3EDF8" d="M203.5,262.6v431.3c0.3,0,0.9,0.2,1.2,0.2c2.4,0.4,5,0,7.2-1.1c1,0.1,6.8-4.1,7.6-4.7l189.4-152.8
			c3.7-2.4,6-6.5,6-10.9V131L211.4,261L203.5,262.6z"/>
		<path fill="#E3ECF8" d="M203.6,262.7v431.3c0.3,0,0.9,0.2,1.2,0.2c2.4,0.4,5,0,7.2-1.2c1,0.1,6.8-4.1,7.6-4.8l189.3-152.7
			c3.7-2.4,6-6.5,6-10.9V131L211.6,260.9L203.6,262.7z"/>
		<path fill="#E2ECF8" d="M203.8,262.8V694c0.3,0,0.9,0.2,1.2,0.2c2.4,0.3,5-0.1,7.2-1.3c0.9,0.1,6.8-4.2,7.5-4.8l189.2-152.6
			c3.7-2.4,6-6.5,6-10.9V131L211.7,260.8L203.8,262.8z"/>
		<path fill="#E2ECF8" d="M203.9,262.8v431.2c0.3,0,0.9,0.2,1.2,0.2c2.5,0.3,5-0.2,7.2-1.4c0.9,0.1,6.8-4.3,7.5-4.9l189.1-152.5
			c3.7-2.4,6-6.5,6-10.9V131l-203,129.7L203.9,262.8z"/>
		<path fill="#E1EBF8" d="M204.1,262.9v431.2c0.3,0,0.9,0.2,1.2,0.2c2.5,0.3,5-0.2,7.2-1.5c0.8,0.1,6.8-4.4,7.5-4.9l189-152.5
			c3.7-2.4,6-6.5,6-10.9V131L212,260.6L204.1,262.9z"/>
		<path fill="#E0EBF8" d="M204.3,263v431.2c0.3,0,0.9,0.2,1.2,0.1c2.5,0.2,5-0.3,7.2-1.6c0.8,0.1,6.8-4.5,7.4-5l188.8-152.4
			c3.7-2.4,6-6.5,6-10.9V131L212.1,260.5L204.3,263z"/>
		<path fill="#E0EBF7" d="M204.4,263.1v431.2c0.3,0,0.9,0.2,1.2,0.1c2.5,0.2,5-0.4,7.2-1.7c0.7,0,6.8-4.5,7.4-5l188.7-152.3
			c3.7-2.4,6-6.5,6-10.9V131L212.3,260.4L204.4,263.1z"/>
		<path fill="#DFEAF7" d="M204.6,263.2v431.1c0.3,0,0.9,0.1,1.2,0.1c2.5,0.2,5-0.4,7.2-1.8c0.6,0,6.8-4.6,7.4-5l188.6-152.2
			c3.7-2.4,6-6.5,6-10.9V131L212.4,260.3L204.6,263.2z"/>
		<path fill="#DFEAF7" d="M204.7,263.3v431.1c0.3,0,0.9,0.1,1.2,0.1c2.5,0.1,5-0.5,7.2-1.9c0.6,0,6.8-4.7,7.3-5.1l188.5-152.1
			c3.7-2.4,6-6.5,6-10.9V131L212.5,260.3L204.7,263.3z"/>
		<path fill="#DEE9F7" d="M204.9,263.3v431.1c0.3,0,0.9,0.1,1.2,0.1c2.5,0.1,5-0.6,7.2-2c0.5,0,6.8-4.8,7.3-5.1l188.4-152
			c3.7-2.4,6-6.5,6-10.9V131L212.7,260.2L204.9,263.3z"/>
		<path fill="#DEE9F7" d="M205,263.4v431.1c0.4,0,0.9,0.1,1.2,0.1c2.5,0.1,5-0.6,7.2-2.1c0.5,0,6.8-4.8,7.2-5.2l188.3-151.9
			c3.7-2.4,6-6.5,6-10.9V131L212.8,260.1L205,263.4z"/>
		<path fill="#DDE9F7" d="M205.2,263.5v431.1c0.4,0,0.9,0.1,1.2,0.1c2.5,0,5-0.7,7.2-2.2c0.4,0,6.8-4.9,7.2-5.2l188.2-151.8
			c3.7-2.4,6-6.5,6-10.9V131L213,260L205.2,263.5z"/>
		<path fill="#DCE8F7" d="M205.3,263.6v431c0.4,0,0.9,0.1,1.2,0c2.5,0,5-0.8,7.2-2.3c0.4,0,6.8-5,7.2-5.3l188.1-151.7
			c3.7-2.4,6-6.5,6-10.9V131L213.1,259.9L205.3,263.6z"/>
		<path fill="#DCE8F7" d="M205.5,263.7v431c0.4,0,0.8,0.1,1.2,0c2.5,0,5-0.8,7.2-2.4c0.3,0,6.9-5.1,7.1-5.3l187.9-151.6
			c3.7-2.4,6-6.5,6-10.9V131L213.2,259.8L205.5,263.7z"/>
		<path fill="#DBE8F6" d="M205.6,263.8v431c0.4,0,0.8,0.1,1.2,0c2.5-0.1,5-0.9,7.2-2.5c0.3,0,6.9-5.2,7.1-5.3l187.8-151.5
			c3.7-2.4,6-6.5,6-10.9V131L213.4,259.7L205.6,263.8z"/>
		<path fill="#DBE7F6" d="M205.8,263.8v431c0.4,0,0.8,0,1.2,0c2.5-0.1,5-1,7.2-2.6c0.2,0,6.9-5.2,7-5.4l187.7-151.5
			c3.7-2.4,6-6.5,6-10.9V131L213.5,259.6L205.8,263.8z"/>
		<path fill="#DAE7F6" d="M206,263.9v431c0.4,0,0.8,0,1.2,0c2.5-0.1,5-1,7.2-2.7c0.2,0,6.9-5.3,7-5.4l187.6-151.4
			c3.7-2.4,6-6.5,6-10.9V131L213.6,259.6L206,263.9z"/>
		<path fill="#DAE7F6" d="M206.1,264V695c0.4,0,0.8,0,1.2,0c2.5-0.2,5-1.1,7.1-2.8c0.1,0,6.9-5.4,7-5.5l187.5-151.3
			c3.7-2.4,6-6.5,6-10.9V131L213.8,259.5L206.1,264z"/>
		<path fill="#D9E6F6" d="M206.3,264.1V695c0.4,0,0.8,0,1.2,0c2.5-0.2,5-1.2,7.1-2.9c0.1,0,6.9-5.5,6.9-5.5l187.4-151.2
			c3.7-2.4,6-6.5,6-10.9V131l-201,128.4L206.3,264.1z"/>
		<g>
			<path fill="#D8E6F6" d="M206.4,264.2v430.9c3,0,5.9-1,8.4-3l194.1-156.6c3.7-2.4,6-6.5,6-10.9V131L206.4,264.2z"/>
		</g>
	</g>
	<path fill="#ABD372" d="M197.2,2.4L27.8,96.5L-2.1,131l208.5,133.7L414.9,131l-32.4-34.5L215.6,2.4C209.9-0.8,202.9-0.8,197.2,2.4z
		"/>
	<defs>
		<filter id="Adobe_OpacityMaskFilter_2_" filterUnits="userSpaceOnUse" x="55.7" y="8.9" width="299.3" height="184.8">
			<feFlood  style="flood-color:white;flood-opacity:1" result="back"/>
			<feBlend  in="SourceGraphic" in2="back" mode="normal"/>
		</filter>
	</defs>
	<mask maskUnits="userSpaceOnUse" x="55.7" y="8.9" width="299.3" height="184.8" id="SVGID_4_">
		<g filter="url(#Adobe_OpacityMaskFilter_2_)">
			<defs>
				<filter id="Adobe_OpacityMaskFilter_3_" filterUnits="userSpaceOnUse" x="55.7" y="8.9" width="299.3" height="184.8">
					<feFlood  style="flood-color:white;flood-opacity:1" result="back"/>
					<feBlend  in="SourceGraphic" in2="back" mode="normal"/>
				</filter>
			</defs>
			<mask maskUnits="userSpaceOnUse" x="55.7" y="8.9" width="299.3" height="184.8" id="SVGID_4_">
				<g filter="url(#Adobe_OpacityMaskFilter_3_)">
				</g>
			</mask>
			<linearGradient id="SVGID_5_" gradientUnits="userSpaceOnUse" x1="205.3736" y1="145.0016" x2="205.3736" y2="11.0155">
				<stop  offset="0" style="stop-color:#000000"/>
				<stop  offset="1" style="stop-color:#FFFFFF"/>
			</linearGradient>
			<path mask="url(#SVGID_4_)" fill="url(#SVGID_5_)" d="M196,11.6L60,87.2c-5.5,3-5.7,10.8-0.4,14.2l142.4,91c2.7,1.7,6.2,1.7,9,0
				l140.4-91c5.2-3.4,5-11.1-0.4-14.1l-134-75.6C210.3,8,202.5,8,196,11.6z"/>
		</g>
	</mask>
	<linearGradient id="SVGID_6_" gradientUnits="userSpaceOnUse" x1="205.3736" y1="145.0016" x2="205.3736" y2="11.0155">
		<stop  offset="0" style="stop-color:#FFFFFF"/>
		<stop  offset="1" style="stop-color:#FFFFFF"/>
	</linearGradient>
	<path opacity="0.5" fill="url(#SVGID_6_)" d="M196,11.6L60,87.2c-5.5,3-5.7,10.8-0.4,14.2l142.4,91c2.7,1.7,6.2,1.7,9,0l140.4-91
		c5.2-3.4,5-11.1-0.4-14.1l-134-75.6C210.3,8,202.5,8,196,11.6z"/>
	<g>
		<polygon fill="#ABD372" points="27.8,96.5 206.4,207.4 205.6,264.7 -2.1,131 		"/>
		<polygon fill="#ABD372" points="27.7,96.6 206.4,207.6 205.6,264.7 -2.1,131 		"/>
		<polygon fill="#ABD372" points="27.6,96.7 206.4,207.7 205.6,264.7 -2.1,131 		"/>
		<polygon fill="#ACD372" points="27.5,96.8 206.4,207.9 205.6,264.7 -2.1,131 		"/>
		<polygon fill="#ACD372" points="27.4,96.9 206.4,208.1 205.6,264.7 -2.1,131 		"/>
		<polygon fill="#ACD372" points="27.3,97 206.4,208.2 205.6,264.7 -2.1,131 		"/>
		<polygon fill="#ACD372" points="27.2,97.2 206.4,208.4 205.6,264.7 -2.1,131 		"/>
		<polygon fill="#ADD372" points="27.2,97.3 206.4,208.6 205.6,264.7 -2.1,131 		"/>
		<polygon fill="#ADD472" points="27.1,97.4 206.4,208.7 205.6,264.7 -2.1,131 		"/>
		<polygon fill="#ADD472" points="27,97.5 206.4,208.9 205.6,264.7 -2.1,131 		"/>
		<polygon fill="#ADD472" points="26.9,97.6 206.4,209.1 205.6,264.7 -2.1,131 		"/>
		<polygon fill="#AED473" points="26.8,97.7 206.4,209.2 205.6,264.7 -2.1,131 		"/>
		<polygon fill="#AED473" points="26.7,97.8 206.4,209.4 205.6,264.7 -2.1,131 		"/>
		<polygon fill="#AED473" points="26.6,97.9 206.4,209.6 205.6,264.7 -2.1,131 		"/>
		<polygon fill="#AED473" points="26.5,98 206.4,209.8 205.6,264.7 -2.1,131 		"/>
		<polygon fill="#AED473" points="26.4,98.1 206.4,209.9 205.6,264.7 -2.1,131 		"/>
		<polygon fill="#AFD473" points="26.3,98.3 206.4,210.1 205.6,264.7 -2.1,131 		"/>
		<polygon fill="#AFD473" points="26.2,98.4 206.4,210.3 205.6,264.7 -2.1,131 		"/>
		<polygon fill="#AFD473" points="26.1,98.5 206.4,210.4 205.6,264.7 -2.1,131 		"/>
		<polygon fill="#AFD473" points="26,98.6 206.4,210.6 205.6,264.7 -2.1,131 		"/>
		<polygon fill="#B0D473" points="25.9,98.7 206.4,210.8 205.6,264.7 -2.1,131 		"/>
		<polygon fill="#B0D573" points="25.8,98.8 206.4,210.9 205.6,264.7 -2.1,131 		"/>
		<polygon fill="#B0D573" points="25.7,98.9 206.4,211.1 205.6,264.7 -2.1,131 		"/>
		<polygon fill="#B0D573" points="25.6,99 206.4,211.3 205.6,264.7 -2.1,131 		"/>
		<polygon fill="#B0D573" points="25.5,99.1 206.4,211.4 205.6,264.7 -2.1,131 		"/>
		<polygon fill="#B1D573" points="25.4,99.2 206.4,211.6 205.6,264.7 -2.1,131 		"/>
		<polygon fill="#B1D573" points="25.3,99.4 206.4,211.8 205.6,264.7 -2.1,131 		"/>
		<polygon fill="#B1D573" points="25.2,99.5 206.4,212 205.6,264.7 -2.1,131 		"/>
		<polygon fill="#B1D573" points="25.1,99.6 206.4,212.1 205.6,264.7 -2.1,131 		"/>
		<polygon fill="#B2D573" points="25.1,99.7 206.4,212.3 205.6,264.7 -2.1,131 		"/>
		<polygon fill="#B2D573" points="25,99.8 206.4,212.5 205.6,264.7 -2.1,131 		"/>
		<polygon fill="#B2D573" points="24.9,99.9 206.4,212.6 205.6,264.7 -2.1,131 		"/>
		<polygon fill="#B2D573" points="24.8,100 206.4,212.8 205.6,264.7 -2.1,131 		"/>
		<polygon fill="#B3D573" points="24.7,100.1 206.4,213 205.6,264.7 -2.1,131 		"/>
		<polygon fill="#B3D673" points="24.6,100.2 206.4,213.1 205.6,264.7 -2.1,131 		"/>
		<polygon fill="#B3D673" points="24.5,100.3 206.4,213.3 205.6,264.7 -2.1,131 		"/>
		<polygon fill="#B3D673" points="24.4,100.5 206.4,213.5 205.6,264.7 -2.1,131 		"/>
		<polygon fill="#B3D673" points="24.3,100.6 206.4,213.7 205.6,264.7 -2.1,131 		"/>
		<polygon fill="#B4D673" points="24.2,100.7 206.4,213.8 205.6,264.7 -2.1,131 		"/>
		<polygon fill="#B4D673" points="24.1,100.8 206.4,214 205.6,264.7 -2.1,131 		"/>
		<polygon fill="#B4D673" points="24,100.9 206.4,214.2 205.6,264.7 -2.1,131 		"/>
		<polygon fill="#B4D673" points="23.9,101 206.4,214.3 205.6,264.7 -2.1,131 		"/>
		<polygon fill="#B5D673" points="23.8,101.1 206.4,214.5 205.6,264.7 -2.1,131 		"/>
		<polygon fill="#B5D673" points="23.7,101.2 206.4,214.7 205.6,264.7 -2.1,131 		"/>
		<polygon fill="#B5D673" points="23.6,101.3 206.4,214.8 205.6,264.7 -2.1,131 		"/>
		<polygon fill="#B5D673" points="23.5,101.4 206.4,215 205.6,264.7 -2.1,131 		"/>
		<polygon fill="#B5D773" points="23.4,101.6 206.4,215.2 205.6,264.7 -2.1,131 		"/>
		<polygon fill="#B6D773" points="23.3,101.7 206.4,215.3 205.6,264.7 -2.1,131 		"/>
		<polygon fill="#B6D773" points="23.2,101.8 206.4,215.5 205.6,264.7 -2.1,131 		"/>
		<polygon fill="#B6D773" points="23.1,101.9 206.4,215.7 205.6,264.7 -2.1,131 		"/>
		<polygon fill="#B6D773" points="23,102 206.4,215.9 205.6,264.7 -2.1,131 		"/>
		<polygon fill="#B7D773" points="23,102.1 206.4,216 205.6,264.7 -2.1,131 		"/>
		<polygon fill="#B7D773" points="22.9,102.2 206.4,216.2 205.6,264.7 -2.1,131 		"/>
		<polygon fill="#B7D773" points="22.8,102.3 206.4,216.4 205.6,264.7 -2.1,131 		"/>
		<polygon fill="#B7D773" points="22.7,102.4 206.4,216.5 205.6,264.7 -2.1,131 		"/>
		<polygon fill="#B7D773" points="22.6,102.5 206.4,216.7 205.6,264.7 -2.1,131 		"/>
		<polygon fill="#B8D773" points="22.5,102.7 206.4,216.9 205.6,264.7 -2.1,131 		"/>
		<polygon fill="#B8D773" points="22.4,102.8 206.4,217 205.6,264.7 -2.1,131 		"/>
		<polygon fill="#B8D774" points="22.3,102.9 206.4,217.2 205.6,264.7 -2.1,131 		"/>
		<polygon fill="#B8D874" points="22.2,103 206.4,217.4 205.6,264.7 -2.1,131 		"/>
		<polygon fill="#B9D874" points="22.1,103.1 206.4,217.5 205.6,264.7 -2.1,131 		"/>
		<polygon fill="#B9D874" points="22,103.2 206.4,217.7 205.6,264.7 -2.1,131 		"/>
	</g>
	<g>
		<polygon fill="#ABD372" points="206.4,207.4 205.6,264.7 414.9,131 382.5,96.5 		"/>
		<polygon fill="#AAD372" points="206.4,207.6 205.6,264.6 414.9,131 382.6,96.6 		"/>
		<polygon fill="#A9D273" points="206.4,207.7 205.6,264.6 414.9,131 382.7,96.7 		"/>
		<polygon fill="#A9D273" points="206.4,207.9 205.6,264.6 414.9,131 382.8,96.8 		"/>
		<polygon fill="#A8D273" points="206.4,208.1 205.6,264.5 414.9,131 382.9,96.9 		"/>
		<polygon fill="#A7D173" points="206.4,208.2 205.6,264.5 414.9,131 383,97 		"/>
		<polygon fill="#A6D173" points="206.4,208.4 205.7,264.5 414.9,131 383.1,97.2 		"/>
		<polygon fill="#A6D073" points="206.4,208.6 205.7,264.5 414.9,131 383.2,97.3 		"/>
		<polygon fill="#A5D074" points="206.4,208.7 205.7,264.4 414.9,131 383.3,97.4 		"/>
		<polygon fill="#A4D074" points="206.4,208.9 205.7,264.4 414.9,131 383.4,97.5 		"/>
		<polygon fill="#A3CF74" points="206.4,209.1 205.7,264.4 414.9,131 383.5,97.6 		"/>
		<polygon fill="#A3CF74" points="206.4,209.2 205.7,264.3 414.9,131 383.6,97.7 		"/>
		<polygon fill="#A2CF74" points="206.4,209.4 205.7,264.3 414.9,131 383.7,97.8 		"/>
		<polygon fill="#A1CE74" points="206.4,209.6 205.7,264.3 414.9,131 383.8,97.9 		"/>
		<polygon fill="#A0CE75" points="206.4,209.8 205.7,264.2 414.9,131 383.9,98 		"/>
		<polygon fill="#9FCE75" points="206.4,209.9 205.7,264.2 414.9,131 384,98.1 		"/>
		<polygon fill="#9FCD75" points="206.4,210.1 205.7,264.2 414.9,131 384.1,98.3 		"/>
		<polygon fill="#9ECD75" points="206.4,210.3 205.7,264.2 414.9,131 384.2,98.4 		"/>
		<polygon fill="#9DCD75" points="206.4,210.4 205.7,264.1 414.9,131 384.3,98.5 		"/>
		<polygon fill="#9CCD75" points="206.4,210.6 205.7,264.1 414.9,131 384.4,98.6 		"/>
		<polygon fill="#9CCC75" points="206.4,210.8 205.7,264.1 414.9,131 384.5,98.7 		"/>
		<polygon fill="#9BCC76" points="206.4,210.9 205.7,264 414.9,131 384.6,98.8 		"/>
		<polygon fill="#9ACC76" points="206.4,211.1 205.7,264 414.9,131 384.8,98.9 		"/>
		<polygon fill="#99CB76" points="206.4,211.3 205.7,264 414.9,131 384.9,99 		"/>
		<polygon fill="#99CB76" points="206.4,211.4 205.7,263.9 414.9,131 385,99.1 		"/>
		<polygon fill="#98CB76" points="206.4,211.6 205.7,263.9 414.9,131 385.1,99.2 		"/>
		<polygon fill="#97CA76" points="206.4,211.8 205.7,263.9 414.9,131 385.2,99.4 		"/>
		<polygon fill="#96CA76" points="206.4,212 205.7,263.9 414.9,131 385.3,99.5 		"/>
		<polygon fill="#96CA77" points="206.4,212.1 205.7,263.8 414.9,131 385.4,99.6 		"/>
		<polygon fill="#95C977" points="206.4,212.3 205.7,263.8 414.9,131 385.5,99.7 		"/>
		<polygon fill="#94C977" points="206.4,212.5 205.7,263.8 414.9,131 385.6,99.8 		"/>
		<polygon fill="#93C977" points="206.4,212.6 205.7,263.7 414.9,131 385.7,99.9 		"/>
		<polygon fill="#92C877" points="206.4,212.8 205.7,263.7 414.9,131 385.8,100 		"/>
		<polygon fill="#92C877" points="206.4,213 205.7,263.7 414.9,131 385.9,100.1 		"/>
		<polygon fill="#91C877" points="206.4,213.1 205.7,263.6 414.9,131 386,100.2 		"/>
		<polygon fill="#90C878" points="206.4,213.3 205.7,263.6 414.9,131 386.1,100.3 		"/>
		<polygon fill="#8FC778" points="206.4,213.5 205.7,263.6 414.9,131 386.2,100.5 		"/>
		<polygon fill="#8EC778" points="206.4,213.7 205.7,263.6 414.9,131 386.3,100.6 		"/>
		<polygon fill="#8EC778" points="206.4,213.8 205.7,263.5 414.9,131 386.4,100.7 		"/>
		<polygon fill="#8DC678" points="206.4,214 205.7,263.5 414.9,131 386.5,100.8 		"/>
		<polygon fill="#8CC678" points="206.4,214.2 205.7,263.5 414.9,131 386.6,100.9 		"/>
		<polygon fill="#8BC678" points="206.4,214.3 205.7,263.4 414.9,131 386.7,101 		"/>
		<polygon fill="#8AC679" points="206.4,214.5 205.7,263.4 414.9,131 386.8,101.1 		"/>
		<polygon fill="#8AC579" points="206.4,214.7 205.7,263.4 414.9,131 386.9,101.2 		"/>
		<polygon fill="#89C579" points="206.4,214.8 205.7,263.3 414.9,131 387,101.3 		"/>
		<polygon fill="#88C579" points="206.4,215 205.7,263.3 414.9,131 387.1,101.4 		"/>
		<polygon fill="#87C479" points="206.4,215.2 205.7,263.3 414.9,131 387.2,101.6 		"/>
		<polygon fill="#86C479" points="206.4,215.3 205.7,263.3 414.9,131 387.3,101.7 		"/>
		<polygon fill="#86C479" points="206.4,215.5 205.7,263.2 414.9,131 387.4,101.8 		"/>
		<polygon fill="#85C47A" points="206.4,215.7 205.7,263.2 414.9,131 387.5,101.9 		"/>
		<polygon fill="#84C37A" points="206.4,215.9 205.7,263.2 414.9,131 387.7,102 		"/>
		<polygon fill="#83C37A" points="206.4,216 205.7,263.1 414.9,131 387.8,102.1 		"/>
		<polygon fill="#82C37A" points="206.4,216.2 205.7,263.1 414.9,131 387.9,102.2 		"/>
		<polygon fill="#82C27A" points="206.4,216.4 205.7,263.1 414.9,131 388,102.3 		"/>
		<polygon fill="#81C27A" points="206.4,216.5 205.7,263 414.9,131 388.1,102.4 		"/>
		<polygon fill="#80C27A" points="206.4,216.7 205.7,263 414.9,131 388.2,102.5 		"/>
		<polygon fill="#7FC27A" points="206.4,216.9 205.7,263 414.9,131 388.3,102.7 		"/>
		<polygon fill="#7EC17B" points="206.4,217 205.7,263 414.9,131 388.4,102.8 		"/>
		<polygon fill="#7DC17B" points="206.4,217.2 205.7,262.9 414.9,131 388.5,102.9 		"/>
		<polygon fill="#7DC17B" points="206.4,217.4 205.7,262.9 414.9,131 388.6,103 		"/>
		<polygon fill="#7CC17B" points="206.4,217.5 205.7,262.9 414.9,131 388.7,103.1 		"/>
		<polygon fill="#7BC07B" points="206.4,217.7 205.7,262.8 414.9,131 388.8,103.2 		"/>
	</g>
</g>
<g>
	<path fill="#D8E6F6" d="M16.5,406.8c0-4.9,0.9-8.6,2.6-11.1c1.7-2.5,4-3.9,6.9-4.3c2.9-0.4,6.2,0.1,10,1.7c3.8,1.6,7.7,4,11.8,7.3
		c4.1,3.3,8,7.2,11.8,11.6c3.8,4.5,7.1,9.2,10,14.3c2.9,5.1,5.2,10.2,6.9,15.4c1.7,5.2,2.6,10.3,2.6,15.2v85.9
		c0,4.9-0.9,8.6-2.6,11.1c-1.7,2.5-4,3.9-6.9,4.3c-2.9,0.4-6.2-0.2-10-1.7c-3.8-1.6-7.7-4-11.8-7.3c-4.1-3.3-8-7.2-11.8-11.6
		c-3.8-4.5-7.1-9.2-10-14.3c-2.9-5-5.2-10.2-6.9-15.4c-1.7-5.2-2.6-10.3-2.6-15.2V406.8z M37.5,509.4c0,3,1,6.3,2.9,9.8
		c1.9,3.5,4.4,6.5,7.4,8.9c3,2.4,5.5,3.4,7.4,3c1.9-0.4,2.9-2.2,2.9-5.2v-85.9c0-3-1-6.3-2.9-9.8c-1.9-3.5-4.4-6.5-7.4-8.9
		c-3-2.4-5.5-3.4-7.4-3c-1.9,0.4-2.9,2.2-2.9,5.2V509.4z"/>
	<path fill="#D8E6F6" d="M117.8,519.5c6.3,5.1,10.6,7.8,13,8.2c2.4,0.4,3.6-2.1,3.6-7.6v-18.9c0-3-0.9-6.2-2.8-9.6
		c-1.8-3.4-4.3-6.4-7.5-8.9c-3.7-3-6.3-3.9-7.9-2.9c-1.6,1.1-2.4,2.7-2.4,4.9v11.9l-21-16.8v-12.1c0-4.2,0.8-7.6,2.5-10.1
		c1.6-2.5,3.9-4,6.8-4.4c2.9-0.4,6.2,0.1,10.1,1.5c3.8,1.4,7.9,3.9,12.3,7.4c5.8,4.6,10.5,9.6,14.3,14.9c3.8,5.3,6.6,9.9,8.5,13.7
		c1.4,2.7,2.6,5.3,3.6,7.8c1,2.5,1.9,5.1,2.6,8c1.2,5.5,1.8,12.7,1.8,21.6c0,5.1-0.1,9.1-0.3,12.1c-0.2,3-0.7,5.2-1.5,6.6
		c-1,1.4-2.3,2.2-4,2.3c-1.7,0.1-4.1-0.1-7.1-0.8c3.3,4.7,5.8,8.6,7.5,11.8c1.7,3.2,3,6.2,3.8,9.2c0.8,3.1,1.3,6.4,1.4,9.9
		c0.1,3.5,0.2,7.8,0.2,13c0,4.8-0.1,8.7-0.3,11.7c-0.2,3-0.5,5.3-0.9,7.1c-0.4,1.9-1,3.3-1.6,4.2c-0.7,1-1.6,1.8-2.7,2.6
		c-2.6,1.7-5.9,2.3-10,1.5c-4-0.7-9.3-3.7-15.9-9c-3.3-2.6-6.8-6-10.5-10.1c-3.7-4.1-7.1-8.5-10.1-13.4c-3-4.9-5.5-10.1-7.5-15.7
		c-2-5.6-3-11.2-3-17v-11.9l21,16.8V570c0,3.3,0.9,6.7,2.8,10.3c1.8,3.6,4.3,6.7,7.5,9.2c3.1,2.5,5.6,3.5,7.5,2.8
		c1.8-0.6,2.8-2.7,2.8-6.3v-20.9c0-5.8-1.1-10.4-3.3-13.9c-1.2-2.1-2.9-4.1-5-6.1c-2.1-2-4.9-4.3-8.3-7.1V519.5z"/>
</g>
</svg>
