<?xml version="1.0" encoding="utf-8"?>
<!-- Generator: Adobe Illustrator 18.1.1, SVG Export Plug-In . SVG Version: 6.00 Build 0)  -->
<svg version="1.1" id="Layer_1" xmlns="http://www.w3.org/2000/svg" xmlns:xlink="http://www.w3.org/1999/xlink" x="0px" y="0px"
	 viewBox="0 0 596.8 836.4" enable-background="new 0 0 596.8 836.4" xml:space="preserve">
<defs>
	<filter id="Adobe_OpacityMaskFilter" filterUnits="userSpaceOnUse" x="60.2" y="407" width="530.6" height="429.4">
		<feFlood  style="flood-color:white;flood-opacity:1" result="back"/>
		<feBlend  in="SourceGraphic" in2="back" mode="normal"/>
	</filter>
</defs>
<mask maskUnits="userSpaceOnUse" x="60.2" y="407" width="530.6" height="429.4" id="SVGID_1_">
	<g filter="url(#Adobe_OpacityMaskFilter)">
		<defs>
			<filter id="Adobe_OpacityMaskFilter_1_" filterUnits="userSpaceOnUse" x="60.2" y="407" width="530.6" height="429.4">
				<feFlood  style="flood-color:white;flood-opacity:1" result="back"/>
				<feBlend  in="SourceGraphic" in2="back" mode="normal"/>
			</filter>
		</defs>
		<mask maskUnits="userSpaceOnUse" x="60.2" y="407" width="530.6" height="429.4" id="SVGID_1_">
			<g filter="url(#Adobe_OpacityMaskFilter_1_)">
			</g>
		</mask>
		<linearGradient id="SVGID_2_" gradientUnits="userSpaceOnUse" x1="476.832" y1="746.3445" x2="139.3584" y2="468.4247">
			<stop  offset="6.157600e-04" style="stop-color:#000000"/>
			<stop  offset="1" style="stop-color:#FFFFFF"/>
		</linearGradient>
		<polygon mask="url(#SVGID_1_)" fill="url(#SVGID_2_)" points="590.8,665.5 379.4,836.4 60.2,577.9 271.5,407 		"/>
	</g>
</mask>
<linearGradient id="SVGID_3_" gradientUnits="userSpaceOnUse" x1="476.832" y1="746.3445" x2="139.3584" y2="468.4247">
	<stop  offset="6.157600e-04" style="stop-color:#FFFFFF"/>
	<stop  offset="1" style="stop-color:#BED3E7"/>
</linearGradient>
<polygon fill="url(#SVGID_3_)" points="590.8,665.5 379.4,836.4 60.2,577.9 271.5,407 "/>
<g>
	<path fill="#FFFFFF" d="M0,131v393.6c0,4.4,2.2,8.5,6,10.9l194.1,156.6c4.9,4,11.9,4,16.8,0L411,535.4c3.7-2.4,6-6.5,6-10.9V131
		L207.7,264.7L0,131z"/>
	<g>
		<g>
			<path fill="#FFFFFF" d="M207.7,264.7l-8.6-5.6v432.1l1,0.8c4.9,4,11.9,4,16.8,0L411,535.4c3.7-2.4,6-6.5,6-10.9V131L207.7,264.7z
				"/>
		</g>
		<path fill="#FEFEFF" d="M199.2,259.2v432.1c0,0,1,0.8,1,0.8c2.2,1.8,4.8,2.7,7.5,2.9c3.2,0.2,6.6-0.8,9.3-3l194-156.6
			c3.7-2.4,6-6.5,6-10.9V131L207.8,264.6L199.2,259.2z"/>
		<path fill="#FDFEFF" d="M199.4,259.3v432.1c0,0,1,0.8,1,0.8c2.2,1.7,4.8,2.7,7.5,2.8c3.2,0.2,6.6-0.9,9.2-3.1L411,535.4
			c3.7-2.4,6-6.5,6-10.9V131L208,264.5L199.4,259.3z"/>
		<path fill="#FCFDFE" d="M199.5,259.4v432.1c0,0,1,0.8,1,0.8c2.2,1.7,4.8,2.6,7.4,2.7c3.1,0.2,6.6-1,9.2-3.1L411,535.4
			c3.7-2.4,6-6.5,6-10.9V131L208.1,264.4L199.5,259.4z"/>
		<path fill="#FBFCFE" d="M199.7,259.4v432c0,0,1,0.8,1,0.8c2.2,1.7,4.8,2.5,7.4,2.6c3.1,0.2,6.6-1.1,9.1-3.2L411,535.4
			c3.7-2.4,6-6.5,6-10.9V131L208.3,264.3L199.7,259.4z"/>
		<path fill="#FAFCFE" d="M199.9,259.5v432c0,0,1,0.8,1,0.8c2.2,1.6,4.8,2.5,7.4,2.5c3,0.2,6.6-1.2,9.1-3.2L411,535.4
			c3.7-2.4,6-6.5,6-10.9V131L208.4,264.2L199.9,259.5z"/>
		<path fill="#F9FBFE" d="M200,259.6v432c0,0,1,0.8,1,0.8c2.2,1.6,4.8,2.4,7.4,2.4c2.9,0.2,6.6-1.2,9.1-3.2L411,535.4
			c3.7-2.4,6-6.5,6-10.9V131L208.5,264.1L200,259.6z"/>
		<path fill="#F8FBFD" d="M200.2,259.7v432c0,0,1,0.7,1,0.7c2.2,1.6,4.8,2.3,7.4,2.3c2.9,0.2,6.6-1.3,9-3.3l193.4-156
			c3.7-2.4,6-6.5,6-10.9V131L208.7,264L200.2,259.7z"/>
		<path fill="#F8FAFD" d="M200.3,259.8v432c0.1,0,1,0.7,1,0.7c2.2,1.5,4.8,2.3,7.4,2.2c2.8,0.2,6.6-1.4,9-3.3L411,535.4
			c3.7-2.4,6-6.5,6-10.9V131L208.8,264L200.3,259.8z"/>
		<path fill="#F7FAFD" d="M200.5,259.9v431.9c0.1,0,1,0.7,1,0.7c2.2,1.5,4.8,2.2,7.4,2.1c2.8,0.2,6.6-1.5,8.9-3.4L411,535.4
			c3.7-2.4,6-6.5,6-10.9V131L209,263.9L200.5,259.9z"/>
		<path fill="#F6F9FD" d="M200.6,259.9v431.9c0.1,0,1,0.7,1.1,0.7c2.2,1.5,4.8,2.1,7.4,2c2.7,0.2,6.7-1.6,8.9-3.4l193-155.7
			c3.7-2.4,6-6.5,6-10.9V131L209.1,263.8L200.6,259.9z"/>
		<path fill="#F6F9FD" d="M200.8,260v431.9c0.1,0,1,0.7,1.1,0.7c2.2,1.4,4.8,2.1,7.4,1.9c2.7,0.2,6.7-1.6,8.9-3.4L411,535.4
			c3.7-2.4,6-6.5,6-10.9V131L209.2,263.7L200.8,260z"/>
		<path fill="#F5F8FD" d="M200.9,260.1V692c0.1,0,1,0.7,1.1,0.7c2.3,1.4,4.8,2,7.4,1.8c2.6,0.2,6.7-1.7,8.8-3.5L411,535.4
			c3.7-2.4,6-6.5,6-10.9V131L209.4,263.6L200.9,260.1z"/>
		<path fill="#F4F8FC" d="M201.1,260.2V692c0.1,0,1,0.7,1.1,0.6c2.3,1.4,4.9,1.9,7.4,1.7c2.6,0.2,6.7-1.8,8.8-3.5L411,535.4
			c3.7-2.4,6-6.5,6-10.9V131L209.5,263.5L201.1,260.2z"/>
		<path fill="#F4F7FC" d="M201.2,260.3v431.8c0.1,0,1,0.6,1.1,0.6c2.3,1.3,4.9,1.9,7.4,1.6c2.5,0.2,6.7-1.9,8.7-3.6L411,535.4
			c3.7-2.4,6-6.5,6-10.9V131L209.6,263.4L201.2,260.3z"/>
		<path fill="#F3F7FC" d="M201.4,260.4v431.8c0.1,0,1,0.6,1.1,0.6c2.3,1.3,4.9,1.8,7.4,1.5c2.5,0.2,6.7-1.9,8.7-3.6L411,535.4
			c3.7-2.4,6-6.5,6-10.9V131L209.8,263.3L201.4,260.4z"/>
		<path fill="#F2F6FC" d="M201.5,260.4v431.8c0.1,0,1,0.6,1.1,0.6c2.3,1.3,4.9,1.7,7.4,1.4c2.4,0.2,6.7-2,8.7-3.7L411,535.4
			c3.7-2.4,6-6.5,6-10.9V131l-207,132.3L201.5,260.4z"/>
		<path fill="#F2F6FC" d="M201.7,260.5v431.8c0.1,0,1,0.6,1.1,0.6c2.3,1.2,4.9,1.7,7.4,1.3c2.4,0.2,6.7-2.1,8.6-3.7L411,535.4
			c3.7-2.4,6-6.5,6-10.9V131L210.1,263.2L201.7,260.5z"/>
		<path fill="#F1F6FC" d="M201.9,260.6v431.8c0.1,0,1,0.6,1.1,0.6c2.3,1.2,4.9,1.6,7.4,1.2c2.3,0.2,6.7-2.2,8.6-3.7l192.1-155
			c3.7-2.4,6-6.5,6-10.9V131L210.2,263.1L201.9,260.6z"/>
		<path fill="#F1F5FB" d="M202,260.7v431.7c0.1,0,1,0.6,1.1,0.6c2.3,1.2,4.9,1.5,7.4,1.1c2.3,0.2,6.7-2.3,8.5-3.8l192-154.9
			c3.7-2.4,6-6.5,6-10.9V131L210.3,263L202,260.7z"/>
		<path fill="#F0F5FB" d="M202.2,260.8v431.7c0.1,0,1,0.6,1.1,0.5c2.3,1.1,4.9,1.5,7.4,1c2.2,0.2,6.7-2.3,8.5-3.8L411,535.4
			c3.7-2.4,6-6.5,6-10.9V131L210.5,262.9L202.2,260.8z"/>
		<path fill="#EFF4FB" d="M202.3,260.9v431.7c0.1,0,1,0.5,1.1,0.5c2.3,1.1,4.9,1.4,7.4,0.9c2.1,0.1,6.7-2.4,8.5-3.9L411,535.4
			c3.7-2.4,6-6.5,6-10.9V131L210.6,262.8L202.3,260.9z"/>
		<path fill="#EFF4FB" d="M202.5,260.9v431.7c0.1,0,0.9,0.5,1.1,0.5c2.3,1.1,4.9,1.3,7.3,0.8c2.1,0.1,6.7-2.5,8.4-3.9L411,535.4
			c3.7-2.4,6-6.5,6-10.9V131L210.7,262.7L202.5,260.9z"/>
		<path fill="#EEF4FB" d="M202.6,261v431.7c0.2,0,0.9,0.5,1.1,0.5c2.3,1,4.9,1.3,7.3,0.7c2,0.1,6.7-2.6,8.4-3.9L411,535.4
			c3.7-2.4,6-6.5,6-10.9V131L210.9,262.6L202.6,261z"/>
		<path fill="#EEF3FB" d="M202.8,261.1v431.6c0.2,0,0.9,0.5,1.1,0.5c2.3,1,4.9,1.2,7.3,0.6c2,0.1,6.7-2.6,8.3-4L411,535.4
			c3.7-2.4,6-6.5,6-10.9V131L211,262.6L202.8,261.1z"/>
		<path fill="#EDF3FA" d="M202.9,261.2v431.6c0.2,0,0.9,0.5,1.1,0.5c2.3,1,4.9,1.1,7.3,0.5c1.9,0.1,6.7-2.7,8.3-4L411,535.4
			c3.7-2.4,6-6.5,6-10.9V131L211.2,262.5L202.9,261.2z"/>
		<path fill="#EDF2FA" d="M203.1,261.3v431.6c0.2,0,0.9,0.5,1.1,0.5c2.3,0.9,4.9,1.1,7.3,0.5c1.9,0.1,6.7-2.8,8.3-4.1L411,535.4
			c3.7-2.4,6-6.5,6-10.9V131L211.3,262.4L203.1,261.3z"/>
		<path fill="#ECF2FA" d="M203.2,261.4v431.6c0.2,0,0.9,0.5,1.1,0.4c2.3,0.9,4.9,1,7.3,0.4c1.8,0.1,6.7-2.9,8.2-4.1L411,535.4
			c3.7-2.4,6-6.5,6-10.9V131L211.4,262.3L203.2,261.4z"/>
		<path fill="#EBF2FA" d="M203.4,261.4V693c0.2,0,0.9,0.4,1.1,0.4c2.4,0.9,4.9,1,7.3,0.3c1.8,0.1,6.7-3,8.2-4.2l191-154.1
			c3.7-2.4,6-6.5,6-10.9V131L211.6,262.2L203.4,261.4z"/>
		<path fill="#EBF1FA" d="M203.5,261.5v431.5c0.2,0,0.9,0.4,1.1,0.4c2.4,0.8,4.9,0.9,7.3,0.2c1.7,0.1,6.7-3,8.1-4.2l190.9-154
			c3.7-2.4,6-6.5,6-10.9V131L211.7,262.1L203.5,261.5z"/>
		<path fill="#EAF1FA" d="M203.7,261.6v431.5c0.2,0,0.9,0.4,1.1,0.4c2.4,0.8,4.9,0.8,7.3,0.1c1.7,0.1,6.7-3.1,8.1-4.2L411,535.4
			c3.7-2.4,6-6.5,6-10.9V131L211.8,262L203.7,261.6z"/>
		<path fill="#EAF1FA" d="M203.9,261.7v431.5c0.2,0,0.9,0.4,1.1,0.4c2.4,0.8,4.9,0.8,7.3,0c1.6,0.1,6.7-3.2,8.1-4.3L411,535.4
			c3.7-2.4,6-6.5,6-10.9V131l-205,131L203.9,261.7z"/>
		<path fill="#E9F0F9" d="M204,261.8v431.5c0.2,0,0.9,0.4,1.1,0.4c2.4,0.7,4.9,0.7,7.3-0.1c1.6,0.1,6.7-3.3,8-4.3L411,535.4
			c3.7-2.4,6-6.5,6-10.9V131L212.1,261.8L204,261.8z"/>
		<path fill="#E9F0F9" d="M204.2,261.9v431.5c0.2,0,0.9,0.4,1.1,0.4c2.4,0.7,4.9,0.6,7.3-0.2c1.5,0.1,6.8-3.4,8-4.4L411,535.4
			c3.7-2.4,6-6.5,6-10.9V131L212.3,261.8L204.2,261.9z"/>
		<path fill="#E8F0F9" d="M204.3,261.9v431.4c0.2,0,0.9,0.4,1.1,0.3c2.4,0.7,4.9,0.6,7.3-0.3c1.4,0.1,6.8-3.4,7.9-4.4L411,535.4
			c3.7-2.4,6-6.5,6-10.9V131L212.4,261.7L204.3,261.9z"/>
		<path fill="#E7EFF9" d="M204.5,262v431.4c0.2,0,0.9,0.3,1.1,0.3c2.4,0.6,4.9,0.5,7.3-0.4c1.4,0.1,6.8-3.5,7.9-4.5L411,535.4
			c3.7-2.4,6-6.5,6-10.9V131L212.5,261.6L204.5,262z"/>
		<path fill="#E7EFF9" d="M204.6,262.1v431.4c0.2,0,0.9,0.3,1.1,0.3c2.4,0.6,4.9,0.4,7.3-0.5c1.3,0.1,6.8-3.6,7.9-4.5L411,535.4
			c3.7-2.4,6-6.5,6-10.9V131L212.7,261.5L204.6,262.1z"/>
		<path fill="#E6EEF9" d="M204.8,262.2v431.4c0.3,0,0.9,0.3,1.2,0.3c2.4,0.6,4.9,0.4,7.3-0.6c1.3,0.1,6.8-3.7,7.8-4.5l190-153.3
			c3.7-2.4,6-6.5,6-10.9V131L212.8,261.4L204.8,262.2z"/>
		<path fill="#E6EEF9" d="M204.9,262.3v431.4c0.3,0,0.9,0.3,1.2,0.3c2.4,0.5,5,0.3,7.3-0.7c1.2,0.1,6.8-3.7,7.8-4.6L411,535.4
			c3.7-2.4,6-6.5,6-10.9V131L213,261.3L204.9,262.3z"/>
		<path fill="#E5EEF9" d="M205.1,262.4v431.3c0.3,0,0.9,0.3,1.2,0.3c2.4,0.5,5,0.2,7.3-0.8c1.2,0.1,6.8-3.8,7.7-4.6L411,535.4
			c3.7-2.4,6-6.5,6-10.9V131L213.1,261.2L205.1,262.4z"/>
		<path fill="#E5EDF8" d="M205.2,262.4v431.3c0.3,0,0.9,0.3,1.2,0.3c2.4,0.5,5,0.2,7.2-0.9c1.1,0.1,6.8-3.9,7.7-4.7l189.6-153
			c3.7-2.4,6-6.5,6-10.9V131L213.2,261.1L205.2,262.4z"/>
		<path fill="#E4EDF8" d="M205.4,262.5v431.3c0.3,0,0.9,0.3,1.2,0.2c2.4,0.4,5,0.1,7.2-1c1.1,0.1,6.8-4,7.7-4.7L411,535.4
			c3.7-2.4,6-6.5,6-10.9V131L213.4,261.1L205.4,262.5z"/>
		<path fill="#E3EDF8" d="M205.5,262.6v431.3c0.3,0,0.9,0.2,1.2,0.2c2.4,0.4,5,0,7.2-1.1c1,0.1,6.8-4.1,7.6-4.7L411,535.4
			c3.7-2.4,6-6.5,6-10.9V131L213.5,261L205.5,262.6z"/>
		<path fill="#E3ECF8" d="M205.7,262.7v431.3c0.3,0,0.9,0.2,1.2,0.2c2.4,0.4,5,0,7.2-1.2c1,0.1,6.8-4.1,7.6-4.8L411,535.4
			c3.7-2.4,6-6.5,6-10.9V131L213.6,260.9L205.7,262.7z"/>
		<path fill="#E2ECF8" d="M205.9,262.8V694c0.3,0,0.9,0.2,1.2,0.2c2.4,0.3,5-0.1,7.2-1.3c0.9,0.1,6.8-4.2,7.5-4.8L411,535.4
			c3.7-2.4,6-6.5,6-10.9V131L213.8,260.8L205.9,262.8z"/>
		<path fill="#E2ECF8" d="M206,262.8v431.2c0.3,0,0.9,0.2,1.2,0.2c2.5,0.3,5-0.2,7.2-1.4c0.9,0.1,6.8-4.3,7.5-4.9L411,535.4
			c3.7-2.4,6-6.5,6-10.9V131l-203,129.7L206,262.8z"/>
		<path fill="#E1EBF8" d="M206.2,262.9v431.2c0.3,0,0.9,0.2,1.2,0.2c2.5,0.3,5-0.2,7.2-1.5c0.8,0.1,6.8-4.4,7.5-4.9l189-152.5
			c3.7-2.4,6-6.5,6-10.9V131L214.1,260.6L206.2,262.9z"/>
		<path fill="#E0EBF8" d="M206.3,263v431.2c0.3,0,0.9,0.2,1.2,0.1c2.5,0.2,5-0.3,7.2-1.6c0.8,0.1,6.8-4.5,7.4-5L411,535.4
			c3.7-2.4,6-6.5,6-10.9V131L214.2,260.5L206.3,263z"/>
		<path fill="#E0EBF7" d="M206.5,263.1v431.2c0.3,0,0.9,0.2,1.2,0.1c2.5,0.2,5-0.4,7.2-1.7c0.7,0,6.8-4.5,7.4-5L411,535.4
			c3.7-2.4,6-6.5,6-10.9V131L214.3,260.4L206.5,263.1z"/>
		<path fill="#DFEAF7" d="M206.6,263.2v431.1c0.3,0,0.9,0.1,1.2,0.1c2.5,0.2,5-0.4,7.2-1.8c0.6,0,6.8-4.6,7.4-5L411,535.4
			c3.7-2.4,6-6.5,6-10.9V131L214.5,260.3L206.6,263.2z"/>
		<path fill="#DFEAF7" d="M206.8,263.3v431.1c0.3,0,0.9,0.1,1.2,0.1c2.5,0.1,5-0.5,7.2-1.9c0.6,0,6.8-4.7,7.3-5.1L411,535.4
			c3.7-2.4,6-6.5,6-10.9V131L214.6,260.3L206.8,263.3z"/>
		<path fill="#DEE9F7" d="M206.9,263.3v431.1c0.3,0,0.9,0.1,1.2,0.1c2.5,0.1,5-0.6,7.2-2c0.5,0,6.8-4.8,7.3-5.1l188.4-152
			c3.7-2.4,6-6.5,6-10.9V131L214.7,260.2L206.9,263.3z"/>
		<path fill="#DEE9F7" d="M207.1,263.4v431.1c0.4,0,0.9,0.1,1.2,0.1c2.5,0.1,5-0.6,7.2-2.1c0.5,0,6.8-4.8,7.2-5.2L411,535.4
			c3.7-2.4,6-6.5,6-10.9V131L214.9,260.1L207.1,263.4z"/>
		<path fill="#DDE9F7" d="M207.2,263.5v431.1c0.4,0,0.9,0.1,1.2,0.1c2.5,0,5-0.7,7.2-2.2c0.4,0,6.8-4.9,7.2-5.2L411,535.4
			c3.7-2.4,6-6.5,6-10.9V131L215,260L207.2,263.5z"/>
		<path fill="#DCE8F7" d="M207.4,263.6v431c0.4,0,0.9,0.1,1.2,0c2.5,0,5-0.8,7.2-2.3c0.4,0,6.8-5,7.2-5.3L411,535.4
			c3.7-2.4,6-6.5,6-10.9V131L215.2,259.9L207.4,263.6z"/>
		<path fill="#DCE8F7" d="M207.6,263.7v431c0.4,0,0.8,0.1,1.2,0c2.5,0,5-0.8,7.2-2.4c0.3,0,6.9-5.1,7.1-5.3L411,535.4
			c3.7-2.4,6-6.5,6-10.9V131L215.3,259.8L207.6,263.7z"/>
		<path fill="#DBE8F6" d="M207.7,263.8v431c0.4,0,0.8,0.1,1.2,0c2.5-0.1,5-0.9,7.2-2.5c0.3,0,6.9-5.2,7.1-5.3L411,535.4
			c3.7-2.4,6-6.5,6-10.9V131L215.4,259.7L207.7,263.8z"/>
		<path fill="#DBE7F6" d="M207.9,263.8v431c0.4,0,0.8,0,1.2,0c2.5-0.1,5-1,7.2-2.6c0.2,0,6.9-5.2,7-5.4L411,535.4
			c3.7-2.4,6-6.5,6-10.9V131L215.6,259.6L207.9,263.8z"/>
		<path fill="#DAE7F6" d="M208,263.9v431c0.4,0,0.8,0,1.2,0c2.5-0.1,5-1,7.2-2.7c0.2,0,6.9-5.3,7-5.4L411,535.4
			c3.7-2.4,6-6.5,6-10.9V131L215.7,259.6L208,263.9z"/>
		<path fill="#DAE7F6" d="M208.2,264V695c0.4,0,0.8,0,1.2,0c2.5-0.2,5-1.1,7.1-2.8c0.1,0,6.9-5.4,7-5.5L411,535.4
			c3.7-2.4,6-6.5,6-10.9V131L215.8,259.5L208.2,264z"/>
		<path fill="#D9E6F6" d="M208.3,264.1V695c0.4,0,0.8,0,1.2,0c2.5-0.2,5-1.2,7.1-2.9c0.1,0,6.9-5.5,6.9-5.5L411,535.4
			c3.7-2.4,6-6.5,6-10.9V131L216,259.4L208.3,264.1z"/>
		<g>
			<path fill="#D8E6F6" d="M208.5,264.2v430.9c3,0,5.9-1,8.4-3L411,535.4c3.7-2.4,6-6.5,6-10.9V131L208.5,264.2z"/>
		</g>
	</g>
	<path fill="#A67AB6" d="M199.2,2.4L29.9,96.5L0,131l208.5,133.7L416.9,131l-32.4-34.5L217.7,2.4C212-0.8,205-0.8,199.2,2.4z"/>
	<defs>
		<filter id="Adobe_OpacityMaskFilter_2_" filterUnits="userSpaceOnUse" x="57.8" y="8.9" width="299.3" height="184.8">
			<feFlood  style="flood-color:white;flood-opacity:1" result="back"/>
			<feBlend  in="SourceGraphic" in2="back" mode="normal"/>
		</filter>
	</defs>
	<mask maskUnits="userSpaceOnUse" x="57.8" y="8.9" width="299.3" height="184.8" id="SVGID_4_">
		<g filter="url(#Adobe_OpacityMaskFilter_2_)">
			<defs>
				<filter id="Adobe_OpacityMaskFilter_3_" filterUnits="userSpaceOnUse" x="57.8" y="8.9" width="299.3" height="184.8">
					<feFlood  style="flood-color:white;flood-opacity:1" result="back"/>
					<feBlend  in="SourceGraphic" in2="back" mode="normal"/>
				</filter>
			</defs>
			<mask maskUnits="userSpaceOnUse" x="57.8" y="8.9" width="299.3" height="184.8" id="SVGID_4_">
				<g filter="url(#Adobe_OpacityMaskFilter_3_)">
				</g>
			</mask>
			<linearGradient id="SVGID_5_" gradientUnits="userSpaceOnUse" x1="207.4355" y1="145.0016" x2="207.4355" y2="11.0155">
				<stop  offset="0" style="stop-color:#000000"/>
				<stop  offset="1" style="stop-color:#FFFFFF"/>
			</linearGradient>
			<path mask="url(#SVGID_4_)" fill="url(#SVGID_5_)" d="M198.1,11.6L62,87.2c-5.5,3-5.7,10.8-0.4,14.2l142.4,91
				c2.7,1.7,6.2,1.7,9,0l140.4-91c5.2-3.4,5-11.1-0.4-14.1l-134-75.6C212.4,8,204.5,8,198.1,11.6z"/>
		</g>
	</mask>
	<linearGradient id="SVGID_6_" gradientUnits="userSpaceOnUse" x1="207.4355" y1="145.0016" x2="207.4355" y2="11.0155">
		<stop  offset="0" style="stop-color:#FFFFFF"/>
		<stop  offset="1" style="stop-color:#FFFFFF"/>
	</linearGradient>
	<path opacity="0.5" fill="url(#SVGID_6_)" d="M198.1,11.6L62,87.2c-5.5,3-5.7,10.8-0.4,14.2l142.4,91c2.7,1.7,6.2,1.7,9,0l140.4-91
		c5.2-3.4,5-11.1-0.4-14.1l-134-75.6C212.4,8,204.5,8,198.1,11.6z"/>
	<g>
		<polygon fill="#A67AB6" points="29.9,96.5 208.5,207.4 207.7,264.7 0,131 		"/>
		<polygon fill="#A67AB6" points="29.8,96.6 208.5,207.6 207.7,264.7 0,131 		"/>
		<polygon fill="#A67BB6" points="29.7,96.7 208.5,207.7 207.7,264.7 0,131 		"/>
		<polygon fill="#A77BB6" points="29.6,96.8 208.5,207.9 207.7,264.7 0,131 		"/>
		<polygon fill="#A77BB6" points="29.5,96.9 208.5,208.1 207.7,264.7 0,131 		"/>
		<polygon fill="#A77BB7" points="29.4,97 208.5,208.2 207.7,264.7 0,131 		"/>
		<polygon fill="#A87CB7" points="29.3,97.2 208.5,208.4 207.7,264.7 0,131 		"/>
		<polygon fill="#A87CB7" points="29.2,97.3 208.5,208.6 207.7,264.7 0,131 		"/>
		<polygon fill="#A97CB7" points="29.1,97.4 208.5,208.7 207.7,264.7 0,131 		"/>
		<polygon fill="#A97CB7" points="29,97.5 208.5,208.9 207.7,264.7 0,131 		"/>
		<polygon fill="#A97DB7" points="28.9,97.6 208.5,209.1 207.7,264.7 0,131 		"/>
		<polygon fill="#AA7DB7" points="28.8,97.7 208.5,209.2 207.7,264.7 0,131 		"/>
		<polygon fill="#AA7DB7" points="28.7,97.8 208.5,209.4 207.7,264.7 0,131 		"/>
		<polygon fill="#AA7DB7" points="28.6,97.9 208.5,209.6 207.7,264.7 0,131 		"/>
		<polygon fill="#AB7EB8" points="28.5,98 208.5,209.8 207.7,264.7 0,131 		"/>
		<polygon fill="#AB7EB8" points="28.5,98.1 208.5,209.9 207.7,264.7 0,131 		"/>
		<polygon fill="#AB7EB8" points="28.4,98.3 208.5,210.1 207.7,264.7 0,131 		"/>
		<polygon fill="#AC7EB8" points="28.3,98.4 208.5,210.3 207.7,264.7 0,131 		"/>
		<polygon fill="#AC7FB8" points="28.2,98.5 208.5,210.4 207.7,264.7 0,131 		"/>
		<polygon fill="#AC7FB8" points="28.1,98.6 208.5,210.6 207.7,264.7 0,131 		"/>
		<polygon fill="#AD7FB8" points="28,98.7 208.5,210.8 207.7,264.7 0,131 		"/>
		<polygon fill="#AD7FB8" points="27.9,98.8 208.5,210.9 207.7,264.7 0,131 		"/>
		<polygon fill="#AE80B9" points="27.8,98.9 208.5,211.1 207.7,264.7 0,131 		"/>
		<polygon fill="#AE80B9" points="27.7,99 208.5,211.3 207.7,264.7 0,131 		"/>
		<polygon fill="#AE80B9" points="27.6,99.1 208.5,211.4 207.7,264.7 0,131 		"/>
		<polygon fill="#AF80B9" points="27.5,99.2 208.5,211.6 207.7,264.7 0,131 		"/>
		<polygon fill="#AF81B9" points="27.4,99.4 208.5,211.8 207.7,264.7 0,131 		"/>
		<polygon fill="#AF81B9" points="27.3,99.5 208.5,212 207.7,264.7 0,131 		"/>
		<polygon fill="#B081B9" points="27.2,99.6 208.5,212.1 207.7,264.7 0,131 		"/>
		<polygon fill="#B081B9" points="27.1,99.7 208.5,212.3 207.7,264.7 0,131 		"/>
		<polygon fill="#B082BA" points="27,99.8 208.5,212.5 207.7,264.7 0,131 		"/>
		<polygon fill="#B182BA" points="26.9,99.9 208.5,212.6 207.7,264.7 0,131 		"/>
		<polygon fill="#B182BA" points="26.8,100 208.5,212.8 207.7,264.7 0,131 		"/>
		<polygon fill="#B282BA" points="26.7,100.1 208.5,213 207.7,264.7 0,131 		"/>
		<polygon fill="#B283BA" points="26.6,100.2 208.5,213.1 207.7,264.7 0,131 		"/>
		<polygon fill="#B283BA" points="26.5,100.3 208.5,213.3 207.7,264.7 0,131 		"/>
		<polygon fill="#B383BA" points="26.4,100.5 208.5,213.5 207.7,264.7 0,131 		"/>
		<polygon fill="#B383BA" points="26.4,100.6 208.5,213.7 207.7,264.7 0,131 		"/>
		<polygon fill="#B384BA" points="26.3,100.7 208.5,213.8 207.7,264.7 0,131 		"/>
		<polygon fill="#B484BB" points="26.2,100.8 208.5,214 207.7,264.7 0,131 		"/>
		<polygon fill="#B484BB" points="26.1,100.9 208.5,214.2 207.7,264.7 0,131 		"/>
		<polygon fill="#B484BB" points="26,101 208.5,214.3 207.7,264.7 0,131 		"/>
		<polygon fill="#B585BB" points="25.9,101.1 208.5,214.5 207.7,264.7 0,131 		"/>
		<polygon fill="#B585BB" points="25.8,101.2 208.5,214.7 207.7,264.7 0,131 		"/>
		<polygon fill="#B685BB" points="25.7,101.3 208.5,214.8 207.7,264.7 0,131 		"/>
		<polygon fill="#B685BB" points="25.6,101.4 208.5,215 207.7,264.7 0,131 		"/>
		<polygon fill="#B686BB" points="25.5,101.6 208.5,215.2 207.7,264.7 0,131 		"/>
		<polygon fill="#B786BC" points="25.4,101.7 208.5,215.3 207.7,264.7 0,131 		"/>
		<polygon fill="#B786BC" points="25.3,101.8 208.5,215.5 207.7,264.7 0,131 		"/>
		<polygon fill="#B786BC" points="25.2,101.9 208.5,215.7 207.7,264.7 0,131 		"/>
		<polygon fill="#B887BC" points="25.1,102 208.5,215.9 207.7,264.7 0,131 		"/>
		<polygon fill="#B887BC" points="25,102.1 208.5,216 207.7,264.7 0,131 		"/>
		<polygon fill="#B887BC" points="24.9,102.2 208.5,216.2 207.7,264.7 0,131 		"/>
		<polygon fill="#B987BC" points="24.8,102.3 208.5,216.4 207.7,264.7 0,131 		"/>
		<polygon fill="#B988BC" points="24.7,102.4 208.5,216.5 207.7,264.7 0,131 		"/>
		<polygon fill="#BA88BD" points="24.6,102.5 208.5,216.7 207.7,264.7 0,131 		"/>
		<polygon fill="#BA88BD" points="24.5,102.7 208.5,216.9 207.7,264.7 0,131 		"/>
		<polygon fill="#BA88BD" points="24.4,102.8 208.5,217 207.7,264.7 0,131 		"/>
		<polygon fill="#BB89BD" points="24.3,102.9 208.5,217.2 207.7,264.7 0,131 		"/>
		<polygon fill="#BB89BD" points="24.3,103 208.5,217.4 207.7,264.7 0,131 		"/>
		<polygon fill="#BB89BD" points="24.2,103.1 208.5,217.5 207.7,264.7 0,131 		"/>
		<polygon fill="#BC89BD" points="24.1,103.2 208.5,217.7 207.7,264.7 0,131 		"/>
	</g>
	<g>
		<polygon fill="#A67AB6" points="208.5,207.4 207.7,264.7 416.9,131 384.5,96.5 		"/>
		<polygon fill="#A57AB6" points="208.5,207.6 207.7,264.6 416.9,131 384.6,96.6 		"/>
		<polygon fill="#A57AB6" points="208.5,207.7 207.7,264.6 416.9,131 384.7,96.7 		"/>
		<polygon fill="#A47AB6" points="208.5,207.9 207.7,264.6 416.9,131 384.8,96.8 		"/>
		<polygon fill="#A479B6" points="208.5,208.1 207.7,264.5 416.9,131 385,96.9 		"/>
		<polygon fill="#A479B6" points="208.5,208.2 207.7,264.5 416.9,131 385.1,97 		"/>
		<polygon fill="#A379B5" points="208.5,208.4 207.7,264.5 416.9,131 385.2,97.2 		"/>
		<polygon fill="#A379B5" points="208.5,208.6 207.7,264.5 416.9,131 385.3,97.3 		"/>
		<polygon fill="#A279B5" points="208.5,208.7 207.7,264.4 416.9,131 385.4,97.4 		"/>
		<polygon fill="#A278B5" points="208.5,208.9 207.7,264.4 416.9,131 385.5,97.5 		"/>
		<polygon fill="#A278B5" points="208.5,209.1 207.7,264.4 416.9,131 385.6,97.6 		"/>
		<polygon fill="#A178B5" points="208.5,209.2 207.7,264.3 416.9,131 385.7,97.7 		"/>
		<polygon fill="#A178B5" points="208.5,209.4 207.7,264.3 416.9,131 385.8,97.8 		"/>
		<polygon fill="#A178B5" points="208.5,209.6 207.7,264.3 416.9,131 385.9,97.9 		"/>
		<polygon fill="#A077B5" points="208.5,209.8 207.7,264.2 416.9,131 386,98 		"/>
		<polygon fill="#A077B5" points="208.5,209.9 207.7,264.2 416.9,131 386.1,98.1 		"/>
		<polygon fill="#9F77B5" points="208.5,210.1 207.7,264.2 416.9,131 386.2,98.3 		"/>
		<polygon fill="#9F77B4" points="208.5,210.3 207.7,264.2 416.9,131 386.3,98.4 		"/>
		<polygon fill="#9F77B4" points="208.5,210.4 207.7,264.1 416.9,131 386.4,98.5 		"/>
		<polygon fill="#9E76B4" points="208.5,210.6 207.7,264.1 416.9,131 386.5,98.6 		"/>
		<polygon fill="#9E76B4" points="208.5,210.8 207.7,264.1 416.9,131 386.6,98.7 		"/>
		<polygon fill="#9D76B4" points="208.5,210.9 207.7,264 416.9,131 386.7,98.8 		"/>
		<polygon fill="#9D76B4" points="208.5,211.1 207.7,264 416.9,131 386.8,98.9 		"/>
		<polygon fill="#9D76B4" points="208.5,211.3 207.7,264 416.9,131 386.9,99 		"/>
		<polygon fill="#9C75B4" points="208.5,211.4 207.7,263.9 416.9,131 387,99.1 		"/>
		<polygon fill="#9C75B4" points="208.5,211.6 207.7,263.9 416.9,131 387.1,99.2 		"/>
		<polygon fill="#9B75B4" points="208.5,211.8 207.7,263.9 416.9,131 387.2,99.4 		"/>
		<polygon fill="#9B75B4" points="208.5,212 207.7,263.9 416.9,131 387.3,99.5 		"/>
		<polygon fill="#9B75B3" points="208.5,212.1 207.7,263.8 416.9,131 387.4,99.6 		"/>
		<polygon fill="#9A74B3" points="208.5,212.3 207.7,263.8 416.9,131 387.5,99.7 		"/>
		<polygon fill="#9A74B3" points="208.5,212.5 207.7,263.8 416.9,131 387.6,99.8 		"/>
		<polygon fill="#9A74B3" points="208.5,212.6 207.7,263.7 416.9,131 387.7,99.9 		"/>
		<polygon fill="#9974B3" points="208.5,212.8 207.7,263.7 416.9,131 387.8,100 		"/>
		<polygon fill="#9974B3" points="208.5,213 207.7,263.7 416.9,131 388,100.1 		"/>
		<polygon fill="#9873B3" points="208.5,213.1 207.7,263.6 416.9,131 388.1,100.2 		"/>
		<polygon fill="#9873B3" points="208.5,213.3 207.7,263.6 416.9,131 388.2,100.3 		"/>
		<polygon fill="#9873B3" points="208.5,213.5 207.7,263.6 416.9,131 388.3,100.5 		"/>
		<polygon fill="#9773B3" points="208.5,213.7 207.7,263.6 416.9,131 388.4,100.6 		"/>
		<polygon fill="#9773B3" points="208.5,213.8 207.7,263.5 416.9,131 388.5,100.7 		"/>
		<polygon fill="#9672B3" points="208.5,214 207.7,263.5 416.9,131 388.6,100.8 		"/>
		<polygon fill="#9672B2" points="208.5,214.2 207.7,263.5 416.9,131 388.7,100.9 		"/>
		<polygon fill="#9672B2" points="208.5,214.3 207.7,263.4 416.9,131 388.8,101 		"/>
		<polygon fill="#9572B2" points="208.5,214.5 207.7,263.4 416.9,131 388.9,101.1 		"/>
		<polygon fill="#9572B2" points="208.5,214.7 207.7,263.4 416.9,131 389,101.2 		"/>
		<polygon fill="#9572B2" points="208.5,214.8 207.7,263.3 416.9,131 389.1,101.3 		"/>
		<polygon fill="#9471B2" points="208.5,215 207.7,263.3 416.9,131 389.2,101.4 		"/>
		<polygon fill="#9471B2" points="208.5,215.2 207.7,263.3 416.9,131 389.3,101.6 		"/>
		<polygon fill="#9371B2" points="208.5,215.3 207.7,263.3 416.9,131 389.4,101.7 		"/>
		<polygon fill="#9371B2" points="208.5,215.5 207.7,263.2 416.9,131 389.5,101.8 		"/>
		<polygon fill="#9371B2" points="208.5,215.7 207.7,263.2 416.9,131 389.6,101.9 		"/>
		<polygon fill="#9270B2" points="208.5,215.9 207.7,263.2 416.9,131 389.7,102 		"/>
		<polygon fill="#9270B1" points="208.5,216 207.7,263.1 416.9,131 389.8,102.1 		"/>
		<polygon fill="#9170B1" points="208.5,216.2 207.7,263.1 416.9,131 389.9,102.2 		"/>
		<polygon fill="#9170B1" points="208.5,216.4 207.7,263.1 416.9,131 390,102.3 		"/>
		<polygon fill="#9170B1" points="208.5,216.5 207.7,263 416.9,131 390.1,102.4 		"/>
		<polygon fill="#9070B1" points="208.5,216.7 207.7,263 416.9,131 390.2,102.5 		"/>
		<polygon fill="#906FB1" points="208.5,216.9 207.7,263 416.9,131 390.3,102.7 		"/>
		<polygon fill="#906FB1" points="208.5,217 207.7,263 416.9,131 390.4,102.8 		"/>
		<polygon fill="#8F6FB1" points="208.5,217.2 207.7,262.9 416.9,131 390.5,102.9 		"/>
		<polygon fill="#8F6FB1" points="208.5,217.4 207.7,262.9 416.9,131 390.6,103 		"/>
		<polygon fill="#8E6FB1" points="208.5,217.5 207.7,262.9 416.9,131 390.7,103.1 		"/>
		<polygon fill="#8E6EB1" points="208.5,217.7 207.7,262.8 416.9,131 390.9,103.2 		"/>
	</g>
</g>
<g>
	<path fill="#D8E6F6" d="M18.5,404.9c0-4.9,0.9-8.6,2.6-11.1c1.7-2.5,4-3.9,6.9-4.3c2.9-0.4,6.2,0.1,10,1.7c3.8,1.6,7.7,4,11.8,7.3
		c4.1,3.3,8,7.2,11.8,11.6c3.8,4.5,7.1,9.2,10,14.3c2.9,5.1,5.2,10.2,6.9,15.4c1.7,5.2,2.6,10.3,2.6,15.2v85.9
		c0,4.9-0.9,8.6-2.6,11.1c-1.7,2.5-4,3.9-6.9,4.3c-2.9,0.4-6.2-0.2-10-1.7c-3.8-1.6-7.7-4-11.8-7.3c-4.1-3.3-8-7.2-11.8-11.6
		c-3.8-4.5-7.1-9.2-10-14.3c-2.9-5-5.2-10.2-6.9-15.4c-1.7-5.2-2.6-10.3-2.6-15.2V404.9z M39.4,507.6c0,3,1,6.3,2.9,9.8
		c1.9,3.5,4.4,6.5,7.4,8.9c3,2.4,5.5,3.4,7.4,3c1.9-0.4,2.9-2.2,2.9-5.2v-85.9c0-3-1-6.3-2.9-9.8c-1.9-3.5-4.4-6.5-7.4-8.9
		c-3-2.4-5.5-3.4-7.4-3c-1.9,0.4-2.9,2.2-2.9,5.2V507.6z"/>
	<path fill="#D8E6F6" d="M157.3,486.3V506l-41.5-33.3v39.4c1.9-0.4,4.4,0,7.4,1.1c3,1.1,6.4,3.2,10.1,6.1
		c7.1,5.7,12.9,12.5,17.4,20.4c4.4,7.9,6.7,16.1,6.7,24.8v37.8c0,4.9-0.9,8.6-2.6,11.1c-1.7,2.5-4,3.9-6.9,4.3
		c-2.9,0.4-6.2-0.2-10-1.7c-3.8-1.6-7.7-4-11.8-7.3c-4.1-3.3-8-7.2-11.8-11.6c-3.8-4.5-7.1-9.2-10-14.3c-2.9-5-5.2-10.2-6.9-15.4
		c-1.7-5.2-2.6-10.3-2.6-15.2V546l21,16.8v5.3c0,3.6,1,7.1,3,10.7c2,3.6,4.6,6.6,7.7,9.2c3.1,2.5,5.6,3.5,7.3,3
		c1.7-0.5,2.6-2.5,2.6-5.9v-34.3c0-2.9-0.9-6.1-2.8-9.6c-1.8-3.5-4.2-6.5-7.1-8.8c-1.8-1.4-3.3-2.3-4.5-2.7
		c-1.2-0.4-2.3-0.5-3.1-0.3c-0.8,0.2-1.4,0.6-1.8,1.2c-0.7,0.7-1.1,1.1-1.2,1.3L97.3,517v-78.9L157.3,486.3z"/>
</g>
</svg>
