<svg enable-background="new 0 0 596.8 836.4" viewBox="0 0 596.8 836.4" xmlns="http://www.w3.org/2000/svg" xmlns:xlink="http://www.w3.org/1999/xlink"><linearGradient id="a" gradientUnits="userSpaceOnUse" x1="482.832" x2="145.3584" y1="746.3445" y2="468.4247"><stop offset=".00061576" stop-color="#fff"/><stop offset="1" stop-color="#bed3e7"/></linearGradient><linearGradient id="b" gradientUnits="userSpaceOnUse" x1="207.4355" x2="207.4355" y1="145.0016" y2="11.0155"><stop offset="0" stop-color="#fff"/><stop offset="1" stop-color="#fff"/></linearGradient><path d="m596.8 665.5-211.4 170.9-319.2-258.5 211.3-170.9z" fill="url(#a)"/><path d="m0 131v393.6c0 4.4 2.2 8.5 6 10.9l194.1 156.6c4.9 4 11.9 4 16.8 0l194.1-156.7c3.7-2.4 6-6.5 6-10.9v-393.5l-209.3 133.7z" fill="#fff"/><path d="m207.7 264.7-8.6-5.6v432.1l1 .8c4.9 4 11.9 4 16.8 0l194.1-156.6c3.7-2.4 6-6.5 6-10.9v-393.5z" fill="#fff"/><path d="m199.2 259.2v432.1s1 .8 1 .8c2.2 1.8 4.8 2.7 7.5 2.9 3.2.2 6.6-.8 9.3-3l194-156.6c3.7-2.4 6-6.5 6-10.9v-393.5l-209.2 133.6z" fill="#fefeff"/><path d="m199.4 259.3v432.1s1 .8 1 .8c2.2 1.7 4.8 2.7 7.5 2.8 3.2.2 6.6-.9 9.2-3.1l193.9-156.5c3.7-2.4 6-6.5 6-10.9v-393.5l-209 133.5z" fill="#fdfeff"/><path d="m199.5 259.4v432.1s1 .8 1 .8c2.2 1.7 4.8 2.6 7.4 2.7 3.1.2 6.6-1 9.2-3.1l193.9-156.5c3.7-2.4 6-6.5 6-10.9v-393.5l-208.9 133.4z" fill="#fcfdfe"/><path d="m199.7 259.4v432s1 .8 1 .8c2.2 1.7 4.8 2.5 7.4 2.6 3.1.2 6.6-1.1 9.1-3.2l193.8-156.2c3.7-2.4 6-6.5 6-10.9v-393.5l-208.7 133.3z" fill="#fbfcfe"/><path d="m199.9 259.5v432s1 .8 1 .8c2.2 1.6 4.8 2.5 7.4 2.5 3 .2 6.6-1.2 9.1-3.2l193.6-156.2c3.7-2.4 6-6.5 6-10.9v-393.5l-208.6 133.2z" fill="#fafcfe"/><path d="m200 259.6v432s1 .8 1 .8c2.2 1.6 4.8 2.4 7.4 2.4 2.9.2 6.6-1.2 9.1-3.2l193.5-156.2c3.7-2.4 6-6.5 6-10.9v-393.5l-208.5 133.1z" fill="#f9fbfe"/><path d="m200.2 259.7v432s1 .7 1 .7c2.2 1.6 4.8 2.3 7.4 2.3 2.9.2 6.6-1.3 9-3.3l193.4-156c3.7-2.4 6-6.5 6-10.9v-393.5l-208.3 133z" fill="#f8fbfd"/><path d="m200.3 259.8v432c.1 0 1 .7 1 .7 2.2 1.5 4.8 2.3 7.4 2.2 2.8.2 6.6-1.4 9-3.3l193.3-156c3.7-2.4 6-6.5 6-10.9v-393.5l-208.2 133z" fill="#f8fafd"/><path d="m200.5 259.9v431.9c.1 0 1 .7 1 .7 2.2 1.5 4.8 2.2 7.4 2.1 2.8.2 6.6-1.5 8.9-3.4l193.2-155.8c3.7-2.4 6-6.5 6-10.9v-393.5l-208 132.9z" fill="#f7fafd"/><path d="m200.6 259.9v431.9c.1 0 1 .7 1.1.7 2.2 1.5 4.8 2.1 7.4 2 2.7.2 6.7-1.6 8.9-3.4l193-155.7c3.7-2.4 6-6.5 6-10.9v-393.5l-207.9 132.8z" fill="#f6f9fd"/><path d="m200.8 260v431.9c.1 0 1 .7 1.1.7 2.2 1.4 4.8 2.1 7.4 1.9 2.7.2 6.7-1.6 8.9-3.4l192.8-155.7c3.7-2.4 6-6.5 6-10.9v-393.5l-207.8 132.7z" fill="#f6f9fd"/><path d="m200.9 260.1v431.9c.1 0 1 .7 1.1.7 2.3 1.4 4.8 2 7.4 1.8 2.6.2 6.7-1.7 8.8-3.5l192.8-155.6c3.7-2.4 6-6.5 6-10.9v-393.5l-207.6 132.6z" fill="#f5f8fd"/><path d="m201.1 260.2v431.8c.1 0 1 .7 1.1.6 2.3 1.4 4.9 1.9 7.4 1.7 2.6.2 6.7-1.8 8.8-3.5l192.6-155.4c3.7-2.4 6-6.5 6-10.9v-393.5l-207.5 132.5z" fill="#f4f8fc"/><path d="m201.2 260.3v431.8c.1 0 1 .6 1.1.6 2.3 1.3 4.9 1.9 7.4 1.6 2.5.2 6.7-1.9 8.7-3.6l192.6-155.3c3.7-2.4 6-6.5 6-10.9v-393.5l-207.4 132.4z" fill="#f4f7fc"/><path d="m201.4 260.4v431.8c.1 0 1 .6 1.1.6 2.3 1.3 4.9 1.8 7.4 1.5 2.5.2 6.7-1.9 8.7-3.6l192.4-155.3c3.7-2.4 6-6.5 6-10.9v-393.5l-207.2 132.3z" fill="#f3f7fc"/><path d="m201.5 260.4v431.8c.1 0 1 .6 1.1.6 2.3 1.3 4.9 1.7 7.4 1.4 2.4.2 6.7-2 8.7-3.7l192.3-155.1c3.7-2.4 6-6.5 6-10.9v-393.5l-207 132.3z" fill="#f2f6fc"/><path d="m201.7 260.5v431.8c.1 0 1 .6 1.1.6 2.3 1.2 4.9 1.7 7.4 1.3 2.4.2 6.7-2.1 8.6-3.7l192.2-155.1c3.7-2.4 6-6.5 6-10.9v-393.5l-206.9 132.2z" fill="#f2f6fc"/><path d="m201.9 260.6v431.8c.1 0 1 .6 1.1.6 2.3 1.2 4.9 1.6 7.4 1.2 2.3.2 6.7-2.2 8.6-3.7l192.1-155c3.7-2.4 6-6.5 6-10.9v-393.6l-206.9 132.1z" fill="#f1f6fc"/><path d="m202 260.7v431.7c.1 0 1 .6 1.1.6 2.3 1.2 4.9 1.5 7.4 1.1 2.3.2 6.7-2.3 8.5-3.8l192-154.9c3.7-2.4 6-6.5 6-10.9v-393.5l-206.7 132z" fill="#f1f5fb"/><path d="m202.2 260.8v431.7c.1 0 1 .6 1.1.5 2.3 1.1 4.9 1.5 7.4 1 2.2.2 6.7-2.3 8.5-3.8l191.8-154.8c3.7-2.4 6-6.5 6-10.9v-393.5l-206.5 131.9z" fill="#f0f5fb"/><path d="m202.3 260.9v431.7c.1 0 1 .5 1.1.5 2.3 1.1 4.9 1.4 7.4.9 2.1.1 6.7-2.4 8.5-3.9l191.7-154.7c3.7-2.4 6-6.5 6-10.9v-393.5l-206.4 131.8z" fill="#eff4fb"/><path d="m202.5 260.9v431.7c.1 0 .9.5 1.1.5 2.3 1.1 4.9 1.3 7.3.8 2.1.1 6.7-2.5 8.4-3.9l191.7-154.6c3.7-2.4 6-6.5 6-10.9v-393.5l-206.3 131.7z" fill="#eff4fb"/><path d="m202.6 261v431.7c.2 0 .9.5 1.1.5 2.3 1 4.9 1.3 7.3.7 2 .1 6.7-2.6 8.4-3.9l191.6-154.6c3.7-2.4 6-6.5 6-10.9v-393.5l-206.1 131.6z" fill="#eef4fb"/><path d="m202.8 261.1v431.6c.2 0 .9.5 1.1.5 2.3 1 4.9 1.2 7.3.6 2 .1 6.7-2.6 8.3-4l191.5-154.4c3.7-2.4 6-6.5 6-10.9v-393.5l-206 131.6z" fill="#eef3fb"/><path d="m202.9 261.2v431.6c.2 0 .9.5 1.1.5 2.3 1 4.9 1.1 7.3.5 1.9.1 6.7-2.7 8.3-4l191.4-154.4c3.7-2.4 6-6.5 6-10.9v-393.5l-205.8 131.5z" fill="#edf3fa"/><path d="m203.1 261.3v431.6c.2 0 .9.5 1.1.5 2.3.9 4.9 1.1 7.3.5 1.9.1 6.7-2.8 8.3-4.1l191.2-154.4c3.7-2.4 6-6.5 6-10.9v-393.5l-205.7 131.4z" fill="#edf2fa"/><path d="m203.2 261.4v431.6c.2 0 .9.5 1.1.4 2.3.9 4.9 1 7.3.4 1.8.1 6.7-2.9 8.2-4.1l191.2-154.3c3.7-2.4 6-6.5 6-10.9v-393.5l-205.6 131.3z" fill="#ecf2fa"/><path d="m203.4 261.4v431.6c.2 0 .9.4 1.1.4 2.4.9 4.9 1 7.3.3 1.8.1 6.7-3 8.2-4.2l191-154.1c3.7-2.4 6-6.5 6-10.9v-393.5l-205.4 131.2z" fill="#ebf2fa"/><path d="m203.5 261.5v431.5c.2 0 .9.4 1.1.4 2.4.8 4.9.9 7.3.2 1.7.1 6.7-3 8.1-4.2l190.9-154c3.7-2.4 6-6.5 6-10.9v-393.5l-205.2 131.1z" fill="#ebf1fa"/><path d="m203.7 261.6v431.5c.2 0 .9.4 1.1.4 2.4.8 4.9.8 7.3.1 1.7.1 6.7-3.1 8.1-4.2l190.8-154c3.7-2.4 6-6.5 6-10.9v-393.5l-205.2 131z" fill="#eaf1fa"/><path d="m203.9 261.7v431.5c.2 0 .9.4 1.1.4 2.4.8 4.9.8 7.3 0 1.6.1 6.7-3.2 8.1-4.3l190.6-153.9c3.7-2.4 6-6.5 6-10.9v-393.5l-205 131z" fill="#eaf1fa"/><path d="m204 261.8v431.5c.2 0 .9.4 1.1.4 2.4.7 4.9.7 7.3-.1 1.6.1 6.7-3.3 8-4.3l190.6-153.9c3.7-2.4 6-6.5 6-10.9v-393.5l-204.9 130.8z" fill="#e9f0f9"/><path d="m204.2 261.9v431.5c.2 0 .9.4 1.1.4 2.4.7 4.9.6 7.3-.2 1.5.1 6.8-3.4 8-4.4l190.4-153.8c3.7-2.4 6-6.5 6-10.9v-393.5l-204.7 130.8z" fill="#e9f0f9"/><path d="m204.3 261.9v431.4c.2 0 .9.4 1.1.3 2.4.7 4.9.6 7.3-.3 1.4.1 6.8-3.4 7.9-4.4l190.4-153.5c3.7-2.4 6-6.5 6-10.9v-393.5l-204.6 130.7z" fill="#e8f0f9"/><path d="m204.5 262v431.4c.2 0 .9.3 1.1.3 2.4.6 4.9.5 7.3-.4 1.4.1 6.8-3.5 7.9-4.5l190.2-153.4c3.7-2.4 6-6.5 6-10.9v-393.5l-204.5 130.6z" fill="#e7eff9"/><path d="m204.6 262.1v431.4c.2 0 .9.3 1.1.3 2.4.6 4.9.4 7.3-.5 1.3.1 6.8-3.6 7.9-4.5l190.1-153.4c3.7-2.4 6-6.5 6-10.9v-393.5l-204.3 130.5z" fill="#e7eff9"/><path d="m204.8 262.2v431.4c.3 0 .9.3 1.2.3 2.4.6 4.9.4 7.3-.6 1.3.1 6.8-3.7 7.8-4.5l190-153.3c3.7-2.4 6-6.5 6-10.9v-393.6l-204.3 130.4z" fill="#e6eef9"/><path d="m204.9 262.3v431.4c.3 0 .9.3 1.2.3 2.4.5 5 .3 7.3-.7 1.2.1 6.8-3.7 7.8-4.6l189.8-153.3c3.7-2.4 6-6.5 6-10.9v-393.5l-204 130.3z" fill="#e6eef9"/><path d="m205.1 262.4v431.3c.3 0 .9.3 1.2.3 2.4.5 5 .2 7.3-.8 1.2.1 6.8-3.8 7.7-4.6l189.7-153.2c3.7-2.4 6-6.5 6-10.9v-393.5l-203.9 130.2z" fill="#e5eef9"/><path d="m205.2 262.4v431.3c.3 0 .9.3 1.2.3 2.4.5 5 .2 7.2-.9 1.1.1 6.8-3.9 7.7-4.7l189.6-153c3.7-2.4 6-6.5 6-10.9v-393.5l-203.7 130.1z" fill="#e5edf8"/><path d="m205.4 262.5v431.3c.3 0 .9.3 1.2.2 2.4.4 5 .1 7.2-1 1.1.1 6.8-4 7.7-4.7l189.5-152.9c3.7-2.4 6-6.5 6-10.9v-393.5l-203.6 130.1z" fill="#e4edf8"/><path d="m205.5 262.6v431.3c.3 0 .9.2 1.2.2 2.4.4 5 0 7.2-1.1 1 .1 6.8-4.1 7.6-4.7l189.5-152.9c3.7-2.4 6-6.5 6-10.9v-393.5l-203.5 130z" fill="#e3edf8"/><path d="m205.7 262.7v431.3c.3 0 .9.2 1.2.2 2.4.4 5 0 7.2-1.2 1 .1 6.8-4.1 7.6-4.8l189.3-152.8c3.7-2.4 6-6.5 6-10.9v-393.5l-203.4 129.9z" fill="#e3ecf8"/><path d="m205.9 262.8v431.2c.3 0 .9.2 1.2.2 2.4.3 5-.1 7.2-1.3.9.1 6.8-4.2 7.5-4.8l189.2-152.7c3.7-2.4 6-6.5 6-10.9v-393.5l-203.2 129.8z" fill="#e2ecf8"/><path d="m206 262.8v431.2c.3 0 .9.2 1.2.2 2.5.3 5-.2 7.2-1.4.9.1 6.8-4.3 7.5-4.9l189.1-152.5c3.7-2.4 6-6.5 6-10.9v-393.5l-203 129.7z" fill="#e2ecf8"/><path d="m206.2 262.9v431.2c.3 0 .9.2 1.2.2 2.5.3 5-.2 7.2-1.5.8.1 6.8-4.4 7.5-4.9l189-152.5c3.7-2.4 6-6.5 6-10.9v-393.5l-203 129.6z" fill="#e1ebf8"/><path d="m206.3 263v431.2c.3 0 .9.2 1.2.1 2.5.2 5-.3 7.2-1.6.8.1 6.8-4.5 7.4-5l188.9-152.3c3.7-2.4 6-6.5 6-10.9v-393.5l-202.8 129.5z" fill="#e0ebf8"/><path d="m206.5 263.1v431.2c.3 0 .9.2 1.2.1 2.5.2 5-.4 7.2-1.7.7 0 6.8-4.5 7.4-5l188.7-152.3c3.7-2.4 6-6.5 6-10.9v-393.5l-202.7 129.4z" fill="#e0ebf7"/><path d="m206.6 263.2v431.1c.3 0 .9.1 1.2.1 2.5.2 5-.4 7.2-1.8.6 0 6.8-4.6 7.4-5l188.6-152.2c3.7-2.4 6-6.5 6-10.9v-393.5l-202.5 129.3z" fill="#dfeaf7"/><path d="m206.8 263.3v431.1c.3 0 .9.1 1.2.1 2.5.1 5-.5 7.2-1.9.6 0 6.8-4.7 7.3-5.1l188.5-152.1c3.7-2.4 6-6.5 6-10.9v-393.5l-202.4 129.3z" fill="#dfeaf7"/><path d="m206.9 263.3v431.1c.3 0 .9.1 1.2.1 2.5.1 5-.6 7.2-2 .5 0 6.8-4.8 7.3-5.1l188.4-152c3.7-2.4 6-6.5 6-10.9v-393.5l-202.3 129.2z" fill="#dee9f7"/><path d="m207.1 263.4v431.1c.4 0 .9.1 1.2.1 2.5.1 5-.6 7.2-2.1.5 0 6.8-4.8 7.2-5.2l188.3-151.9c3.7-2.4 6-6.5 6-10.9v-393.5l-202.1 129.1z" fill="#dee9f7"/><path d="m207.2 263.5v431.1c.4 0 .9.1 1.2.1 2.5 0 5-.7 7.2-2.2.4 0 6.8-4.9 7.2-5.2l188.2-151.9c3.7-2.4 6-6.5 6-10.9v-393.5l-202 129z" fill="#dde9f7"/><path d="m207.4 263.6v431c.4 0 .9.1 1.2 0 2.5 0 5-.8 7.2-2.3.4 0 6.8-5 7.2-5.3l188-151.6c3.7-2.4 6-6.5 6-10.9v-393.5l-201.8 128.9z" fill="#dce8f7"/><path d="m207.6 263.7v431c.4 0 .8.1 1.2 0 2.5 0 5-.8 7.2-2.4.3 0 6.9-5.1 7.1-5.3l187.9-151.6c3.7-2.4 6-6.5 6-10.9v-393.5l-201.7 128.8z" fill="#dce8f7"/><path d="m207.7 263.8v431c.4 0 .8.1 1.2 0 2.5-.1 5-.9 7.2-2.5.3 0 6.9-5.2 7.1-5.3l187.8-151.6c3.7-2.4 6-6.5 6-10.9v-393.5l-201.6 128.7z" fill="#dbe8f6"/><path d="m207.9 263.8v431h1.2c2.5-.1 5-1 7.2-2.6.2 0 6.9-5.2 7-5.4l187.7-151.4c3.7-2.4 6-6.5 6-10.9v-393.5l-201.4 128.6z" fill="#dbe7f6"/><path d="m208 263.9v431h1.2c2.5-.1 5-1 7.2-2.7.2 0 6.9-5.3 7-5.4l187.6-151.4c3.7-2.4 6-6.5 6-10.9v-393.5l-201.3 128.6z" fill="#dae7f6"/><path d="m208.2 264v431h1.2c2.5-.2 5-1.1 7.1-2.8.1 0 6.9-5.4 7-5.5l187.5-151.3c3.7-2.4 6-6.5 6-10.9v-393.5l-201.2 128.5z" fill="#dae7f6"/><path d="m208.3 264.1v430.9h1.2c2.5-.2 5-1.2 7.1-2.9.1 0 6.9-5.5 6.9-5.5l187.5-151.2c3.7-2.4 6-6.5 6-10.9v-393.5l-201 128.4z" fill="#d9e6f6"/><path d="m208.5 264.2v430.9c3 0 5.9-1 8.4-3l194.1-156.7c3.7-2.4 6-6.5 6-10.9v-393.5z" fill="#d8e6f6"/><path d="m199.2 2.4-169.3 94.1-29.9 34.5 208.5 133.7 208.4-133.7-32.4-34.5-166.8-94.1c-5.7-3.2-12.7-3.2-18.5 0z" fill="#ffd536"/><path d="m198.1 11.6-136.1 75.6c-5.5 3-5.7 10.8-.4 14.2l142.4 91c2.7 1.7 6.2 1.7 9 0l140.4-91c5.2-3.4 5-11.1-.4-14.1l-134-75.6c-6.6-3.7-14.5-3.7-20.9-.1z" fill="url(#b)" opacity=".5"/><path d="m29.9 96.5 178.6 110.9-.8 57.3-207.7-133.7z" fill="#ffd536"/><path d="m29.8 96.6 178.7 111-.8 57.1-207.7-133.7z" fill="#ffd536"/><path d="m29.7 96.7 178.8 111-.8 57-207.7-133.7z" fill="#ffd536"/><path d="m29.6 96.8 178.9 111.1-.8 56.8-207.7-133.7z" fill="#ffd537"/><path d="m29.5 96.9 179 111.2-.8 56.6-207.7-133.7z" fill="#ffd637"/><path d="m29.4 97 179.1 111.2-.8 56.5-207.7-133.7z" fill="#ffd637"/><path d="m29.3 97.2 179.2 111.2-.8 56.3-207.7-133.7z" fill="#ffd637"/><path d="m29.2 97.3 179.3 111.3-.8 56.1-207.7-133.7z" fill="#ffd638"/><g fill="#ffd738"><path d="m29.1 97.4 179.4 111.3-.8 56-207.7-133.7z"/><path d="m29 97.5 179.5 111.4-.8 55.8-207.7-133.7z"/><path d="m28.9 97.6 179.6 111.5-.8 55.6-207.7-133.7z"/><path d="m28.8 97.7 179.7 111.5-.8 55.5-207.7-133.7z"/></g><path d="m28.7 97.8 179.8 111.6-.8 55.3-207.7-133.7z" fill="#ffd739"/><path d="m28.6 97.9 179.9 111.7-.8 55.1-207.7-133.7z" fill="#ffd839"/><path d="m28.5 98 180 111.8-.8 54.9-207.7-133.7z" fill="#ffd839"/><path d="m28.5 98.1 180 111.8-.8 54.8-207.7-133.7z" fill="#ffd839"/><path d="m28.4 98.3 180.1 111.8-.8 54.6-207.7-133.7z" fill="#fed83a"/><path d="m28.3 98.4 180.2 111.9-.8 54.4-207.7-133.7z" fill="#fed93a"/><path d="m28.2 98.5 180.3 111.9-.8 54.3-207.7-133.7z" fill="#fed93a"/><path d="m28.1 98.6 180.4 112-.8 54.1-207.7-133.7z" fill="#fed93a"/><path d="m28 98.7 180.5 112.1-.8 53.9-207.7-133.7z" fill="#fed93b"/><path d="m27.9 98.8 180.6 112.1-.8 53.8-207.7-133.7z" fill="#feda3b"/><path d="m27.8 98.9 180.7 112.2-.8 53.6-207.7-133.7z" fill="#feda3b"/><path d="m27.7 99 180.8 112.3-.8 53.4-207.7-133.7z" fill="#feda3b"/><path d="m27.6 99.1 180.9 112.3-.8 53.3-207.7-133.7z" fill="#feda3c"/><path d="m27.5 99.2 181 112.4-.8 53.1-207.7-133.7z" fill="#feda3c"/><path d="m27.4 99.4 181.1 112.4-.8 52.9-207.7-133.7z" fill="#fedb3c"/><path d="m27.3 99.5 181.2 112.5-.8 52.7-207.7-133.7z" fill="#fedb3c"/><path d="m27.2 99.6 181.3 112.5-.8 52.6-207.7-133.7z" fill="#fedb3d"/><path d="m27.1 99.7 181.4 112.6-.8 52.4-207.7-133.7z" fill="#fedb3d"/><path d="m27 99.8 181.5 112.7-.8 52.2-207.7-133.7z" fill="#fedc3d"/><path d="m26.9 99.9 181.6 112.7-.8 52.1-207.7-133.7z" fill="#fedc3d"/><path d="m26.8 100 181.7 112.8-.8 51.9-207.7-133.7z" fill="#fedc3e"/><path d="m26.7 100.1 181.8 112.9-.8 51.7-207.7-133.7z" fill="#fedc3e"/><path d="m26.6 100.2 181.9 112.9-.8 51.6-207.7-133.7z" fill="#fedd3e"/><path d="m26.5 100.3 182 113-.8 51.4-207.7-133.7z" fill="#fedd3e"/><path d="m26.4 100.5 182.1 113-.8 51.2-207.7-133.7z" fill="#fedd3f"/><path d="m26.4 100.6 182.1 113.1-.8 51-207.7-133.7z" fill="#fedd3f"/><path d="m26.3 100.7 182.2 113.1-.8 50.9-207.7-133.7z" fill="#fedd3f"/><path d="m26.2 100.8 182.3 113.2-.8 50.7-207.7-133.7z" fill="#fede3f"/><path d="m26.1 100.9 182.4 113.3-.8 50.5-207.7-133.7z" fill="#fede40"/><path d="m26 101 182.5 113.3-.8 50.4-207.7-133.7z" fill="#fede40"/><path d="m25.9 101.1 182.6 113.4-.8 50.2-207.7-133.7z" fill="#fede40"/><path d="m25.8 101.2 182.7 113.5-.8 50-207.7-133.7z" fill="#fedf40"/><path d="m25.7 101.3 182.8 113.5-.8 49.9-207.7-133.7z" fill="#fedf41"/><path d="m25.6 101.4 182.9 113.6-.8 49.7-207.7-133.7z" fill="#fedf41"/><path d="m25.5 101.6 183 113.6-.8 49.5-207.7-133.7z" fill="#fedf41"/><path d="m25.4 101.7 183.1 113.6-.8 49.4-207.7-133.7z" fill="#fee041"/><path d="m25.3 101.8 183.2 113.7-.8 49.2-207.7-133.7z" fill="#fee042"/><path d="m25.2 101.9 183.3 113.8-.8 49-207.7-133.7z" fill="#fee042"/><path d="m25.1 102 183.4 113.9-.8 48.8-207.7-133.7z" fill="#fee042"/><path d="m25 102.1 183.5 113.9-.8 48.7-207.7-133.7z" fill="#fee042"/><path d="m24.9 102.2 183.6 114-.8 48.5-207.7-133.7z" fill="#fee143"/><path d="m24.8 102.3 183.7 114.1-.8 48.3-207.7-133.7z" fill="#fee143"/><path d="m24.7 102.4 183.8 114.1-.8 48.2-207.7-133.7z" fill="#fee143"/><path d="m24.6 102.5 183.9 114.2-.8 48-207.7-133.7z" fill="#fee143"/><path d="m24.5 102.7 184 114.2-.8 47.8-207.7-133.7z" fill="#fee244"/><path d="m24.4 102.8 184.1 114.2-.8 47.7-207.7-133.7z" fill="#fee244"/><path d="m24.3 102.9 184.2 114.3-.8 47.5-207.7-133.7z" fill="#fee244"/><path d="m24.3 103 184.2 114.4-.8 47.3-207.7-133.7z" fill="#fee244"/><path d="m24.2 103.1 184.3 114.4-.8 47.2-207.7-133.7z" fill="#fee345"/><path d="m24.1 103.2 184.4 114.5-.8 47-207.7-133.7z" fill="#fee345"/><path d="m208.5 207.4-.8 57.3 209.2-133.7-32.4-34.5z" fill="#ffd536"/><path d="m208.5 207.6-.8 57 209.2-133.6-32.3-34.4z" fill="#ffd436"/><path d="m208.5 207.7-.8 56.9 209.2-133.6-32.2-34.3z" fill="#fed437"/><path d="m208.5 207.9-.8 56.7 209.2-133.6-32.1-34.2z" fill="#fed438"/><path d="m208.5 208.1-.8 56.4 209.2-133.5-31.9-34.1z" fill="#fed338"/><path d="m208.5 208.2-.8 56.3 209.2-133.5-31.8-34z" fill="#fed339"/><path d="m208.5 208.4-.8 56.1 209.2-133.5-31.7-33.8z" fill="#fdd33a"/><path d="m208.5 208.6-.8 55.9 209.2-133.5-31.6-33.7z" fill="#fdd23a"/><path d="m208.5 208.7-.8 55.7 209.2-133.4-31.5-33.6z" fill="#fdd23b"/><path d="m208.5 208.9-.8 55.5 209.2-133.4-31.4-33.5z" fill="#fdd13b"/><path d="m208.5 209.1-.8 55.3 209.2-133.4-31.3-33.4z" fill="#fdd13c"/><path d="m208.5 209.2-.8 55.1 209.2-133.3-31.2-33.3z" fill="#fcd13d"/><path d="m208.5 209.4-.8 54.9 209.2-133.3-31.1-33.2z" fill="#fcd03d"/><path d="m208.5 209.6-.8 54.7 209.2-133.3-31-33.1z" fill="#fcd03e"/><path d="m208.5 209.8-.8 54.4 209.2-133.2-30.9-33z" fill="#fcd03e"/><path d="m208.5 209.9-.8 54.3 209.2-133.2-30.8-32.9z" fill="#fbcf3f"/><path d="m208.5 210.1-.8 54.1 209.2-133.2-30.7-32.7z" fill="#fbcf3f"/><path d="m208.5 210.3-.8 53.9 209.2-133.2-30.6-32.6z" fill="#fbce40"/><path d="m208.5 210.4-.8 53.7 209.2-133.1-30.5-32.5z" fill="#fbce40"/><path d="m208.5 210.6-.8 53.5 209.2-133.1-30.4-32.4z" fill="#fbce41"/><path d="m208.5 210.8-.8 53.3 209.2-133.1-30.3-32.3z" fill="#facd41"/><path d="m208.5 210.9-.8 53.1 209.2-133-30.2-32.2z" fill="#facd42"/><path d="m208.5 211.1-.8 52.9 209.2-133-30.1-32.1z" fill="#facd43"/><path d="m208.5 211.3-.8 52.7 209.2-133-30-32z" fill="#facc43"/><path d="m208.5 211.4-.8 52.5 209.2-132.9-29.9-31.9z" fill="#f9cc44"/><path d="m208.5 211.6-.8 52.3 209.2-132.9-29.8-31.8z" fill="#f9cc44"/><path d="m208.5 211.8-.8 52.1 209.2-132.9-29.7-31.6z" fill="#f9cb45"/><path d="m208.5 212-.8 51.9 209.2-132.9-29.6-31.5z" fill="#f9cb45"/><path d="m208.5 212.1-.8 51.7 209.2-132.8-29.5-31.4z" fill="#f9cb46"/><path d="m208.5 212.3-.8 51.5 209.2-132.8-29.4-31.3z" fill="#f8ca46"/><path d="m208.5 212.5-.8 51.3 209.2-132.8-29.3-31.2z" fill="#f8ca47"/><path d="m208.5 212.6-.8 51.1 209.2-132.7-29.2-31.1z" fill="#f8c947"/><path d="m208.5 212.8-.8 50.9 209.2-132.7-29.1-31z" fill="#f8c948"/><path d="m208.5 213-.8 50.7 209.2-132.7-28.9-30.9z" fill="#f8c948"/><path d="m208.5 213.1-.8 50.5 209.2-132.6-28.8-30.8z" fill="#f7c848"/><path d="m208.5 213.3-.8 50.3 209.2-132.6-28.7-30.7z" fill="#f7c849"/><path d="m208.5 213.5-.8 50.1 209.2-132.6-28.6-30.5z" fill="#f7c849"/><path d="m208.5 213.7-.8 49.9 209.2-132.6-28.5-30.4z" fill="#f7c74a"/><path d="m208.5 213.8-.8 49.7 209.2-132.5-28.4-30.3z" fill="#f7c74a"/><path d="m208.5 214-.8 49.5 209.2-132.5-28.3-30.2z" fill="#f6c74b"/><path d="m208.5 214.2-.8 49.3 209.2-132.5-28.2-30.1z" fill="#f6c64b"/><path d="m208.5 214.3-.8 49.1 209.2-132.4-28.1-30z" fill="#f6c64c"/><path d="m208.5 214.5-.8 48.9 209.2-132.4-28-29.9z" fill="#f6c64c"/><path d="m208.5 214.7-.8 48.7 209.2-132.4-27.9-29.8z" fill="#f6c54d"/><path d="m208.5 214.8-.8 48.5 209.2-132.3-27.8-29.7z" fill="#f6c54d"/><path d="m208.5 215-.8 48.3 209.2-132.3-27.7-29.6z" fill="#f5c44d"/><path d="m208.5 215.2-.8 48.1 209.2-132.3-27.6-29.4z" fill="#f5c44e"/><path d="m208.5 215.3-.8 48 209.2-132.3-27.5-29.3z" fill="#f5c44e"/><path d="m208.5 215.5-.8 47.7 209.2-132.2-27.4-29.2z" fill="#f5c34f"/><path d="m208.5 215.7-.8 47.5 209.2-132.2-27.3-29.1z" fill="#f5c34f"/><path d="m208.5 215.9-.8 47.3 209.2-132.2-27.2-29z" fill="#f4c350"/><path d="m208.5 216-.8 47.1 209.2-132.1-27.1-28.9z" fill="#f4c250"/><path d="m208.5 216.2-.8 46.9 209.2-132.1-27-28.8z" fill="#f4c250"/><path d="m208.5 216.4-.8 46.7 209.2-132.1-26.9-28.7z" fill="#f4c251"/><path d="m208.5 216.5-.8 46.5 209.2-132-26.8-28.6z" fill="#f4c151"/><path d="m208.5 216.7-.8 46.3 209.2-132-26.7-28.5z" fill="#f3c152"/><path d="m208.5 216.9-.8 46.1 209.2-132-26.6-28.3z" fill="#f3c152"/><path d="m208.5 217-.8 46 209.2-132-26.5-28.2z" fill="#f3c052"/><path d="m208.5 217.2-.8 45.7 209.2-131.9-26.4-28.1z" fill="#f3c053"/><path d="m208.5 217.4-.8 45.5 209.2-131.9-26.3-28z" fill="#f3c053"/><path d="m208.5 217.5-.8 45.4 209.2-131.9-26.2-27.9z" fill="#f3bf54"/><path d="m208.5 217.7-.8 45.1 209.2-131.8-26-27.8z" fill="#f2bf54"/><path d="m18.7 407.3c0-4.9.9-8.6 2.6-11.1s4-3.9 6.9-4.3 6.2.1 10 1.7 7.7 4 11.8 7.3 8 7.2 11.8 11.6c3.8 4.5 7.1 9.2 10 14.3s5.2 10.2 6.9 15.4 2.6 10.3 2.6 15.2v85.9c0 4.9-.9 8.6-2.6 11.1s-4 3.9-6.9 4.3-6.2-.2-10-1.7c-3.8-1.6-7.7-4-11.8-7.3s-8-7.2-11.8-11.6c-3.8-4.5-7.1-9.2-10-14.3-2.9-5-5.2-10.2-6.9-15.4s-2.6-10.3-2.6-15.2zm21 102.6c0 3 1 6.3 2.9 9.8s4.4 6.5 7.4 8.9 5.5 3.4 7.4 3 2.9-2.2 2.9-5.2v-85.9c0-3-1-6.3-2.9-9.8s-4.4-6.5-7.4-8.9-5.5-3.4-7.4-3-2.9 2.2-2.9 5.2z" fill="#d8e6f6"/><path d="m120 604.6v-124l-21-1.4v-22.2l20.9 1.4 20.9 16.8v146.2z" fill="#d8e6f6"/></svg>